<svg id="logo" xmlns="http://www.w3.org/2000/svg" xmlns:xlink="http://www.w3.org/1999/xlink" viewBox="0 0 610 50"><defs><style>.cls-1{fill:url(#linear-gradient);}.cls-2{fill:url(#linear-gradient-2);}.cls-3{fill:#fff;}</style><linearGradient id="linear-gradient" x1="10.86" y1="24.07" x2="239.32" y2="24.07" gradientUnits="userSpaceOnUse"><stop offset="0" stop-color="#d3145a"/><stop offset="1" stop-color="#4f2280"/></linearGradient><linearGradient id="linear-gradient-2" x1="600.14" y1="24.07" x2="236.94" y2="24.07" gradientUnits="userSpaceOnUse"><stop offset="0" stop-color="#63207a"/><stop offset="0.64" stop-color="#a01a69"/><stop offset="1" stop-color="#c3165f"/></linearGradient></defs><title>logo</title><path class="cls-1" d="M42.65,6.13v36.8H36.08L10.86,6.13h6.57L37.2,35.42V6.13ZM10.86,26.59l5.49,0V42.93H10.86ZM76.27,42.93A18.64,18.64,0,0,1,57.58,24,18.7,18.7,0,1,1,95,24,18.64,18.64,0,0,1,76.27,42.93Zm0-4.52c7.81,0,13.25-6.86,13.25-14.37S84,9.71,76.27,9.71,63,16.58,63,24,68.52,38.41,76.27,38.41Zm55.46-19.23c0-4.95-3.44-8.53-7.61-8.53H109.89V6.13h14.28a12.92,12.92,0,0,1,13,13.05,12.87,12.87,0,0,1-7.9,12.07l7.9,11.68h-6l-7.21-10.7h-8.59v10.7h-5.45V27.72h14.23C128.29,27.72,131.73,24.19,131.73,19.18Zm59.07-13v36.8h-5.44V15.31L173,42.93h-3.09L152.12,6.13h6.57L171.43,34,183.57,6.13ZM152.12,26.34l5.49,0V42.93h-5.49Zm87.2,16.59h-5.53L222.64,15.78l-.11-.28v0l-.1.28L211.26,42.93h-5.53l15.11-36.8h3.36Z"/><polygon class="cls-2" points="600.14 37.64 245.95 37.64 236.94 10.49 600.14 10.49 600.14 37.64"/><path class="cls-3" d="M252.49,16.44h1.95V29.92h6.46v1.64h-8.41Z"/><path class="cls-3" d="M266.88,26.8l-1.57,4.76h-2l5.13-15.12h2.36L276,31.56h-2.09l-1.61-4.76Zm5-1.52-1.48-4.35c-.33-1-.56-1.89-.78-2.76h-.05c-.22.89-.47,1.81-.76,2.73l-1.48,4.38Z"/><path class="cls-3" d="M288.1,26.8l-1.57,4.76h-2l5.14-15.12H292l5.16,15.12h-2.09l-1.61-4.76Zm4.95-1.52-1.48-4.35c-.33-1-.56-1.89-.78-2.76h0c-.23.89-.48,1.81-.77,2.73l-1.48,4.38Z"/><path class="cls-3" d="M300.75,16.64a18.8,18.8,0,0,1,3.56-.31,6.26,6.26,0,0,1,4.15,1.1,3.16,3.16,0,0,1,1.26,2.67,3.61,3.61,0,0,1-2.56,3.32v0a3.9,3.9,0,0,1,3.12,3.79,4.09,4.09,0,0,1-1.28,3c-1.05,1-2.76,1.41-5.23,1.41a22.67,22.67,0,0,1-3-.18Zm1.95,6.19h1.77c2.06,0,3.27-1.07,3.27-2.53,0-1.77-1.34-2.47-3.32-2.47a8,8,0,0,0-1.72.14Zm0,7.25a10,10,0,0,0,1.63.09c2,0,3.88-.74,3.88-2.94s-1.77-2.92-3.9-2.92H302.7Z"/><path class="cls-3" d="M327.19,23.84c0,5.21-3.17,8-7,8s-6.79-3.1-6.79-7.68c0-4.8,3-7.94,7-7.94S327.19,19.36,327.19,23.84Zm-11.74.25c0,3.23,1.75,6.12,4.83,6.12s4.84-2.85,4.84-6.28c0-3-1.57-6.14-4.82-6.14S315.45,20.77,315.45,24.09Z"/><path class="cls-3" d="M342.59,30.89a14.15,14.15,0,0,1-4.64.83,7.82,7.82,0,0,1-5.66-2,7.79,7.79,0,0,1-2.1-5.63c0-4.51,3.11-7.81,8.18-7.81a9.41,9.41,0,0,1,3.77.7l-.47,1.59a7.84,7.84,0,0,0-3.34-.65c-3.68,0-6.08,2.29-6.08,6.08s2.31,6.1,5.83,6.1a6.41,6.41,0,0,0,2.6-.4V25.19h-3.07V23.62h5Z"/><path class="cls-3" d="M349.38,26.8l-1.57,4.76h-2l5.14-15.12h2.36l5.15,15.12h-2.08l-1.62-4.76Zm5-1.52-1.48-4.35c-.34-1-.56-1.89-.79-2.76h0c-.23.89-.47,1.81-.76,2.73l-1.48,4.38Z"/><path class="cls-3" d="M362,16.64a27.91,27.91,0,0,1,4.15-.31c2.8,0,4.8.65,6.12,1.88a7,7,0,0,1,2.13,5.43,8,8,0,0,1-2.17,5.88c-1.42,1.41-3.75,2.17-6.69,2.17a29.7,29.7,0,0,1-3.54-.18ZM364,30a12.26,12.26,0,0,0,2,.11c4.18,0,6.44-2.33,6.44-6.41,0-3.57-2-5.83-6.12-5.83a11.32,11.32,0,0,0-2.29.2Z"/><path class="cls-3" d="M380.46,26.8l-1.57,4.76h-2L382,16.44h2.36l5.15,15.12h-2.08l-1.62-4.76Zm5-1.52-1.48-4.35c-.34-1-.56-1.89-.79-2.76h0c-.23.89-.47,1.81-.76,2.73l-1.48,4.38Z"/><path class="cls-3" d="M399.23,16.64a27.91,27.91,0,0,1,4.15-.31c2.8,0,4.8.65,6.12,1.88a7,7,0,0,1,2.13,5.43,8,8,0,0,1-2.17,5.88c-1.41,1.41-3.75,2.17-6.68,2.17a29.76,29.76,0,0,1-3.55-.18ZM401.18,30a12.4,12.4,0,0,0,2,.11c4.17,0,6.43-2.33,6.43-6.41,0-3.57-2-5.83-6.12-5.83a11.32,11.32,0,0,0-2.29.2Z"/><path class="cls-3" d="M423.36,24.47h-5.88v5.45H424v1.64h-8.5V16.44h8.17v1.64h-6.22v4.78h5.88Z"/><path class="cls-3" d="M434.06,16.44H436V29.92h6.46v1.64h-8.41Z"/><path class="cls-3" d="M448.45,26.8l-1.57,4.76h-2L450,16.44h2.35l5.16,15.12h-2.08l-1.62-4.76Zm5-1.52-1.48-4.35c-.34-1-.56-1.89-.79-2.76h0c-.23.89-.47,1.81-.76,2.73l-1.48,4.38Z"/><path class="cls-3" d="M460.83,29.18a6.88,6.88,0,0,0,3.5,1c2,0,3.16-1.06,3.16-2.58s-.81-2.22-2.85-3c-2.47-.87-4-2.15-4-4.28,0-2.36,2-4.11,4.89-4.11a6.86,6.86,0,0,1,3.34.74l-.54,1.6a6,6,0,0,0-2.87-.72c-2.06,0-2.85,1.23-2.85,2.26,0,1.42.92,2.11,3,2.92,2.56,1,3.86,2.22,3.86,4.44s-1.73,4.35-5.3,4.35a7.77,7.77,0,0,1-3.85-1Z"/><path class="cls-3" d="M482.16,31.56l-4.94-15.12h2.11l2.35,7.45c.65,2,1.22,3.88,1.62,5.65h0c.43-1.75,1.06-3.66,1.73-5.63l2.56-7.47h2.08l-5.4,15.12Z"/><path class="cls-3" d="M497,13l-2.87,2.62h-1.6L494.58,13Zm-2.31,3.43V31.56h-1.95V16.44Z"/><path class="cls-3" d="M510,31.07a9.91,9.91,0,0,1-4,.71c-4.26,0-7.46-2.69-7.46-7.65a7.52,7.52,0,0,1,7.89-7.94,8.06,8.06,0,0,1,3.59.68l-.47,1.59a7.11,7.11,0,0,0-3.05-.63c-3.55,0-5.9,2.27-5.9,6.24,0,3.7,2.13,6.08,5.81,6.08a7.78,7.78,0,0,0,3.18-.63Z"/><path class="cls-3" d="M517.32,18.1h-4.6V16.44h11.19V18.1h-4.62V31.56h-2Z"/><path class="cls-3" d="M528.91,16.44V31.56H527V16.44Z"/><path class="cls-3" d="M546.42,24.92c-.11-2.11-.24-4.64-.22-6.53h-.07c-.51,1.77-1.14,3.66-1.9,5.74l-2.67,7.34h-1.48l-2.45-7.2c-.72-2.13-1.32-4.08-1.75-5.88h0c-.05,1.89-.16,4.42-.29,6.69l-.41,6.48h-1.86l1.05-15.12h2.49l2.58,7.31c.63,1.86,1.15,3.52,1.53,5.09H541c.38-1.52.92-3.18,1.59-5.09l2.69-7.31h2.49l.94,15.12h-1.9Z"/><path class="cls-3" d="M555.3,26.8l-1.57,4.76h-2l5.14-15.12h2.36l5.15,15.12h-2.08l-1.62-4.76Zm5-1.52-1.48-4.35c-.34-1-.56-1.89-.79-2.76h0c-.23.89-.47,1.81-.76,2.73l-1.48,4.38Z"/><path class="cls-3" d="M567.68,29.18a6.88,6.88,0,0,0,3.5,1c2,0,3.16-1.06,3.16-2.58s-.81-2.22-2.85-3c-2.47-.87-4-2.15-4-4.28,0-2.36,2-4.11,4.89-4.11a6.86,6.86,0,0,1,3.34.74l-.54,1.6a6,6,0,0,0-2.87-.72c-2.06,0-2.85,1.23-2.85,2.26,0,1.42.92,2.11,3,2.92,2.56,1,3.86,2.22,3.86,4.44s-1.73,4.35-5.3,4.35a7.74,7.74,0,0,1-3.85-1Z"/></svg>