<?xml version="1.0" encoding="UTF-8"?>
<svg width="631px" height="503px" viewBox="0 0 631 503" version="1.1" xmlns="http://www.w3.org/2000/svg" xmlns:xlink="http://www.w3.org/1999/xlink">
    <!-- Generator: Sketch 51.3 (57544) - http://www.bohemiancoding.com/sketch -->
    <title>People Chatting</title>
    <desc>Created with Sketch.</desc>
    <defs>
        <linearGradient x1="0%" y1="116.066255%" x2="43.5757408%" y2="39.7439905%" id="linearGradient-1">
            <stop stop-color="#E2427B" offset="0%"></stop>
            <stop stop-color="#FF8011" offset="100%"></stop>
        </linearGradient>
        <linearGradient x1="68.7144831%" y1="19.6420261%" x2="113.755335%" y2="83.8041259%" id="linearGradient-2">
            <stop stop-color="#FFD812" offset="0%"></stop>
            <stop stop-color="#FF8011" offset="100%"></stop>
        </linearGradient>
        <linearGradient x1="38.2934285%" y1="80.2253889%" x2="56.7954092%" y2="4.45371231%" id="linearGradient-3">
            <stop stop-color="#E2427B" offset="0%"></stop>
            <stop stop-color="#FF8011" offset="100%"></stop>
        </linearGradient>
        <linearGradient x1="79.653953%" y1="204.605705%" x2="25.9855044%" y2="14.2506721%" id="linearGradient-4">
            <stop stop-color="#E2427B" offset="0%"></stop>
            <stop stop-color="#FF8011" offset="100%"></stop>
        </linearGradient>
        <path d="M3.57619978,0.209254243 C1.65608089,0.622638137 0.438043352,2.49482304 0.857041341,4.39177681 L13.929086,63.4638227 C14.293545,65.1045468 15.7669636,66.2276869 17.4039991,66.2276869 C17.656783,66.2276869 17.9104326,66.1986475 18.167545,66.1439852 C20.0893953,65.7323095 21.3057015,63.8592705 20.8867035,61.9640249 L7.81465877,2.89027086 C7.45019978,1.24698447 5.97678123,0.128114843 4.33888,0.128114843 C4.08696179,0.128114843 3.83244648,0.15459191 3.57619978,0.209254243" id="path-5"></path>
        <linearGradient x1="-0.000529177217%" y1="49.9997696%" x2="100.00075%" y2="49.9997696%" id="linearGradient-7">
            <stop stop-color="#4F2D99" offset="0%"></stop>
            <stop stop-color="#201581" offset="100%"></stop>
        </linearGradient>
        <path d="M22.4413684,2.65035446 L0.540278015,46.3183862 C-0.338444956,48.0746763 0.405428853,50.1949599 2.20341768,51.0537435 C2.71549195,51.2998479 3.2601768,51.4151555 3.79516661,51.4151555 C5.13572593,51.4151555 6.42428459,50.6871685 7.05358068,49.4334132 L28.9537897,5.76279994 C29.8325127,4.00650986 29.0895202,1.8879473 27.29065,1.02486109 C26.7785757,0.781338263 26.236535,0.666030634 25.7015452,0.666030634 C24.3609859,0.666030634 23.0715458,1.3931571 22.4413684,2.65035446" id="path-8"></path>
        <linearGradient x1="0.000579914667%" y1="49.9998077%" x2="99.9988723%" y2="49.9998077%" id="linearGradient-10">
            <stop stop-color="#4F2D99" offset="0%"></stop>
            <stop stop-color="#201581" offset="100%"></stop>
        </linearGradient>
        <path d="M1.05150142,1.10201908 C0.339729279,1.78368923 0.326629178,2.90376011 1.01918784,3.60090323 L49.3349794,52.3244162 C49.6886821,52.681154 50.1550457,52.8590931 50.6214093,52.8590931 C51.0729261,52.8590931 51.5253162,52.6914693 51.8755256,52.3562217 C52.5855511,51.6754112 52.5995245,50.5553403 51.9060925,49.856478 L3.59117428,1.13296502 C3.2383449,0.777946388 2.77198132,0.600007269 2.30561773,0.600007269 C1.85322758,0.600007269 1.3999641,0.767631077 1.05150142,1.10201908" id="path-11"></path>
        <linearGradient x1="0.00055478135%" y1="50.000366%" x2="99.9997864%" y2="50.000366%" id="linearGradient-13">
            <stop stop-color="#4F2D99" offset="0%"></stop>
            <stop stop-color="#201581" offset="100%"></stop>
        </linearGradient>
        <path d="M57.2898305,0.662167765 L1.94217537,23.8471729 C1.0240719,24.2307735 0.577614768,25.325862 0.942424095,26.2866903 C1.22124265,27.0228381 1.89353413,27.4712856 2.60317513,27.4712856 C2.82292932,27.4712856 3.04615788,27.4292721 3.26330629,27.3379387 L58.61183,4.15384689 C59.5290649,3.76841958 59.975522,2.67698444 59.6107127,1.71341617 C59.3318941,0.979094957 58.6604712,0.528820877 57.9499616,0.528820877 C57.7302074,0.527907542 57.5069789,0.571747615 57.2898305,0.662167765" id="path-14"></path>
        <linearGradient x1="-8.92119556e-05%" y1="49.9998927%" x2="99.9999978%" y2="49.9998927%" id="linearGradient-16">
            <stop stop-color="#4F2D99" offset="0%"></stop>
            <stop stop-color="#201581" offset="100%"></stop>
        </linearGradient>
        <path d="M0.687373377,64.6532184 C-10.2305098,206.173905 135.820051,139.919263 137.551246,121.542727 C138.783413,108.46166 132.662182,95.1406856 111.838553,88.7989072 C100.060793,85.2099317 85.0257104,66.5821067 78.6096388,34.9432604 C74.0532598,12.4874284 61.621571,2.23796571 46.3382948,0.8142833 C45.5083421,0.736357264 44.6801496,0.697832032 43.8537173,0.697832032 C23.0767349,0.699583179 3.74490873,25.0107553 0.687373377,64.6532184" id="path-17"></path>
        <linearGradient x1="0.00018575316%" y1="50.0001401%" x2="99.9999757%" y2="50.0001401%" id="linearGradient-19">
            <stop stop-color="#4F2D99" offset="0%"></stop>
            <stop stop-color="#201581" offset="100%"></stop>
        </linearGradient>
        <linearGradient x1="64.3979374%" y1="23.879153%" x2="99.9998627%" y2="49.9996228%" id="linearGradient-20">
            <stop stop-color="#AEBF97" offset="0%"></stop>
            <stop stop-color="#48BDCA" offset="100%"></stop>
        </linearGradient>
        <linearGradient x1="-0.000246489586%" y1="49.9996228%" x2="99.9998627%" y2="49.9996228%" id="linearGradient-21">
            <stop stop-color="#AEBF97" offset="0%"></stop>
            <stop stop-color="#48BDCA" offset="100%"></stop>
        </linearGradient>
        <linearGradient x1="14.3906913%" y1="15.9748922%" x2="66.2085854%" y2="81.9993769%" id="linearGradient-22">
            <stop stop-color="#FF3B87" offset="0%"></stop>
            <stop stop-color="#D31459" offset="100%"></stop>
        </linearGradient>
        <linearGradient x1="76.169619%" y1="34.7391034%" x2="14.3906913%" y2="100%" id="linearGradient-23">
            <stop stop-color="#FF3B87" offset="0%"></stop>
            <stop stop-color="#D31459" offset="100%"></stop>
        </linearGradient>
        <linearGradient x1="9.35961778%" y1="55.9815611%" x2="105.511874%" y2="55.9815611%" id="linearGradient-24">
            <stop stop-color="#FF3B87" offset="0%"></stop>
            <stop stop-color="#D31459" offset="100%"></stop>
        </linearGradient>
        <polygon id="path-25" points="0 0.958297423 58.2010974 0.958297423 58.2010974 48.6043826 0 48.6043826"></polygon>
        <polygon id="path-27" points="-0.000170474866 0.805648452 80.876686 0.805648452 80.876686 67.1089054 -0.000170474866 67.1089054"></polygon>
        <polygon id="path-29" points="0 0.805648452 80.8782203 0.805648452 80.8782203 67.1089054 0 67.1089054"></polygon>
    </defs>
    <g id="Norma-Mokcup" stroke="none" stroke-width="1" fill="none" fill-rule="evenodd">
        <g id="Desktop-HD" transform="translate(-397.000000, -230.000000)">
            <g id="People-Chatting" transform="translate(397.000000, 230.000000)">
                <g id="Cellphone" transform="translate(240.000000, 0.000000)" fill-rule="nonzero">
                    <rect id="Rectangle-3-Copy" fill="#19173F" x="6.64566929" y="0" width="204.354331" height="388.004237" rx="11"></rect>
                    <rect id="Rectangle-3" fill="#2F2974" x="0" y="4.99576271" width="199.370079" height="388.004237" rx="11"></rect>
                    <path d="M13.2890223,8.40172199 C46.1207451,8.29032726 63.9585753,8.30227899 66.8025127,8.43757717 C71.4817663,8.66018912 70.5181888,24.6005365 76.9333902,24.6993159 C83.3485916,24.7980953 124.275297,24.2706338 129.754105,24.4309652 C135.232914,24.5912967 134.592131,8.55584644 139.101727,8.43757717 C141.808361,8.36659261 157.463489,8.35951485 186.067111,8.41634389 L186.067111,8.41634313 C191.582191,8.42730036 196.047244,12.9012335 196.047244,18.4163242 L196.047244,380.669492 C196.047244,385.640054 192.017807,389.669492 187.047244,389.669492 L12.3228346,389.669494 C7.3522719,389.669494 3.32283465,385.640057 3.32283465,380.669494 C3.32283465,380.669493 3.32283465,380.669492 3.32283465,380.669492 L3.32294964,18.4016628 C3.32295137,12.8920611 7.77945234,8.4204154 13.2890223,8.40172199 Z" id="Rectangle-3" fill="#FFFFFF"></path>
                    <g id="Avatar-Copy-2" transform="translate(18.275591, 48.292373)">
                        <ellipse id="Oval" fill="#E5EFFE" cx="15.7834646" cy="15.8199153" rx="15.7834646" ry="15.8199153"></ellipse>
                        <path d="M25.6610375,21.8141144 C25.4105919,21.3694248 20.8023936,19.8130113 19.5201123,18.8918687 C21.5232919,16.9740891 22.7082686,14.2821862 22.8059581,11.4274366 C23.0520231,8.62743623 21.7775929,5.92142939 19.5155565,4.44090315 C17.2535202,2.96037692 14.3935516,2.96037692 12.1315152,4.44090315 C9.86947881,5.92142939 8.59504862,8.62743623 8.84111361,11.4274366 C8.92897218,14.2808843 10.1378196,16.9665974 12.1770485,18.8389294 C10.8446781,19.8024235 6.22646195,21.358837 5.98603421,21.8035266 C5.48955952,22.6646183 5.14979437,23.6162284 4.98425197,24.609306 C7.64871083,28.0077766 11.607484,29.9745763 15.7834646,29.9745763 C19.9594451,29.9745763 23.9182183,28.0077766 26.5826772,24.609306 C26.4407485,23.6255931 26.1283051,22.6780004 25.6610375,21.8141144 Z" id="Shape" fill="#FFFFFF"></path>
                    </g>
                    <g id="Avatar-Copy-4" transform="translate(18.275591, 168.190678)">
                        <ellipse id="Oval" fill="#E5EFFE" cx="15.7834646" cy="15.8199153" rx="15.7834646" ry="15.8199153"></ellipse>
                        <path d="M25.6610375,21.8141144 C25.4105919,21.3694248 20.8023936,19.8130113 19.5201123,18.8918687 C21.5232919,16.9740891 22.7082686,14.2821862 22.8059581,11.4274366 C23.0520231,8.62743623 21.7775929,5.92142939 19.5155565,4.44090315 C17.2535202,2.96037692 14.3935516,2.96037692 12.1315152,4.44090315 C9.86947881,5.92142939 8.59504862,8.62743623 8.84111361,11.4274366 C8.92897218,14.2808843 10.1378196,16.9665974 12.1770485,18.8389294 C10.8446781,19.8024235 6.22646195,21.358837 5.98603421,21.8035266 C5.48955952,22.6646183 5.14979437,23.6162284 4.98425197,24.609306 C7.64871083,28.0077766 11.607484,29.9745763 15.7834646,29.9745763 C19.9594451,29.9745763 23.9182183,28.0077766 26.5826772,24.609306 C26.4407485,23.6255931 26.1283051,22.6780004 25.6610375,21.8141144 Z" id="Shape" fill="#FFFFFF"></path>
                    </g>
                    <g id="Avatar-Copy-3" transform="translate(151.188976, 113.237288)">
                        <ellipse id="Oval" fill="#E5EFFE" cx="15.7834646" cy="15.8199153" rx="15.7834646" ry="15.8199153"></ellipse>
                        <path d="M25.6610375,21.8141144 C25.4105919,21.3694248 20.8023936,19.8130113 19.5201123,18.8918687 C21.5232919,16.9740891 22.7082686,14.2821862 22.8059581,11.4274366 C23.0520231,8.62743623 21.7775929,5.92142939 19.5155565,4.44090315 C17.2535202,2.96037692 14.3935516,2.96037692 12.1315152,4.44090315 C9.86947881,5.92142939 8.59504862,8.62743623 8.84111361,11.4274366 C8.92897218,14.2808843 10.1378196,16.9665974 12.1770485,18.8389294 C10.8446781,19.8024235 6.22646195,21.358837 5.98603421,21.8035266 C5.48955952,22.6646183 5.14979437,23.6162284 4.98425197,24.609306 C7.64871083,28.0077766 11.607484,29.9745763 15.7834646,29.9745763 C19.9594451,29.9745763 23.9182183,28.0077766 26.5826772,24.609306 C26.4407485,23.6255931 26.1283051,22.6780004 25.6610375,21.8141144 Z" id="Shape" fill="#FFFFFF"></path>
                    </g>
                    <ellipse id="Oval-4" fill="#E5EFFE" cx="147.866142" cy="20.815678" rx="3.32283465" ry="4.16313559"></ellipse>
                    <ellipse id="Oval-4-Copy" fill="#E5EFFE" cx="161.15748" cy="20.815678" rx="3.32283465" ry="4.16313559"></ellipse>
                    <ellipse id="Oval-4-Copy-2" fill="#E5EFFE" cx="174.448819" cy="20.815678" rx="3.32283465" ry="4.16313559"></ellipse>
                    <path d="M61.4724409,46.6271186 L182.417323,46.6271186 C183.521892,46.6271186 184.417323,47.5225491 184.417323,48.6271186 L184.417323,97.9152542 C184.417323,99.0198237 183.521892,99.9152542 182.417323,99.9152542 L63.4724409,99.9152542 C62.3678714,99.9152542 61.4724409,99.0198237 61.4724409,97.9152542 L61.4724409,46.6271186 Z" id="Rectangle-4" fill="#E5EFFE"></path>
                    <path d="M61.4724409,166.525424 L182.417323,166.525424 C183.521892,166.525424 184.417323,167.420854 184.417323,168.525424 L184.417323,217.813559 C184.417323,218.918129 183.521892,219.813559 182.417323,219.813559 L63.4724409,219.813559 C62.3678714,219.813559 61.4724409,218.918129 61.4724409,217.813559 L61.4724409,166.525424 Z" id="Rectangle-4-Copy-2" fill="#E5EFFE"></path>
                    <path d="M16.6141732,114.902542 L137.559055,114.902542 C138.663625,114.902542 139.559055,115.797973 139.559055,116.902542 L139.559055,146.207627 C139.559055,147.312197 138.663625,148.207627 137.559055,148.207627 L18.6141732,148.207627 C17.5096037,148.207627 16.6141732,147.312197 16.6141732,146.207627 L16.6141732,114.902542 Z" id="Rectangle-4-Copy" fill="#E5EFFE" transform="translate(78.086614, 131.555085) scale(-1, 1) translate(-78.086614, -131.555085) "></path>
                    <path d="M3.82872264,296.415254 L196.26211,296.503791 L196.26211,376.627611 C196.574533,385.358827 191.626147,389.724435 181.416951,389.724435 C171.207756,389.724435 116.908542,389.724435 18.5193107,389.724435 C8.72558532,389.631968 3.82872264,386.146643 3.82872264,379.268461 C3.82872264,372.390278 3.82872264,344.772543 3.82872264,296.415254 Z" id="Path-3" fill="#E5EFFE"></path>
                    <rect id="Rectangle-5" fill="#FFFFFF" x="18.2755906" y="304.741525" width="164.480315" height="46.6271186" rx="2"></rect>
                </g>
                <g id="People" transform="translate(0.000000, 30.000000)">
                    <g id="Hombre" transform="translate(411.206704, 90.936620)">
                        <path d="M118.659584,99.2198107 C118.02749,99.2198107 117.370848,99.1646234 116.70544,99.0551249 C105.148022,97.1410913 93.3837049,92.4930994 82.0086388,87.9992814 C80.4998536,87.4018576 79.0042187,86.8114418 77.5261176,86.2341657 L77.3428892,86.1623347 C65.437425,81.498575 51.9416432,76.2119879 43.8769625,65.7526922 C35.5887255,55.0008164 29.5719949,42.341915 24.3048352,30.2637935 C24.0619918,29.7066652 23.7402462,29.0496743 23.4000901,28.3541399 C21.9842341,25.4625037 19.8424779,21.0922 20.8252485,18.5395712 C21.1434874,17.7178945 17.7270224,14.2060589 23.8664897,16.4012847 C23.8664897,16.4012847 27.8729677,19.1676545 30.5863264,23.9549285 C37.9128334,36.8836342 45.3278861,50.1329515 56.2909074,60.1025701 C66.972511,70.8123984 92.5078906,74.5327191 111.152479,77.2482816 C114.390975,77.7204391 117.447997,78.166317 120.092097,78.603435 C126.77599,79.7080557 128.732764,85.1435608 128.377704,89.4630572 C127.991083,94.1627324 124.784148,99.2198107 118.660461,99.2198107 L118.659584,99.2198107 Z" id="Fill-107" fill="#FFA985"></path>
                        <path d="M22.4975367,26.3892114 C21.6673102,23.9005297 20.4872841,22.6250913 18.1237251,22.6890384 C15.7610428,22.7529855 3.05778975,22.9448268 3.02622887,20.6479865 C2.99291461,18.3511462 10.4623222,20.4570212 11.0374315,19.595925 C11.6125408,18.7348289 -0.102681415,6.13637062 0.759982559,4.76457354 C1.62176984,3.39277645 8.19695257,10.8877291 8.3889479,10.7291753 C8.57918986,10.5688695 1.23865586,1.82913802 2.41955868,0.713129404 C3.6004615,-0.402003219 7.43072461,4.44483795 7.81383859,4.09444278 C8.19695257,3.74317162 9.7285318,4.82852066 11.2609877,6.48676579 C12.7943203,8.14501092 21.6366261,14.7149203 24.5086659,16.8838664 C27.3815824,19.0528125 28.6571678,23.3591691 28.6571678,23.3591691 C28.6571678,23.3591691 28.8500399,25.7182046 26.3277998,26.7396065 C23.8055597,27.7601324 22.4975367,26.3892114 22.4975367,26.3892114" id="Fill-109" fill="#FFA985"></path>
                        <path d="M94.1970989,72.0863476 C90.4054102,72.0924795 84.955022,92.1298272 89.4445568,93.9448742 C98.3797918,97.5583244 107.602581,100.859923 116.630746,102.455973 C132.342802,105.228475 138.581336,77.1083864 122.870156,74.3358846 C115.8163,73.0911058 104.777883,72.0688279 94.1970989,72.0863476 Z" id="Fill-111" fill="url(#linearGradient-1)"></path>
                        <path d="M75.3858518,351.331937 C75.3858518,351.331937 55.6550434,362.357121 54.8668982,370.024644 C54.3242265,375.328751 59.523881,376.236274 66.3497973,373.828183 C73.943695,371.145032 79.0206128,365.442351 79.0206128,365.442351 C79.0206128,365.442351 80.2497336,367.161039 81.8979127,366.367394 C83.5452152,365.572873 89.5514254,363.828781 89.5514254,360.733916 C89.5514254,357.637299 89.5514254,354.961155 88.7764306,352.832505 C88.0014357,350.701226 75.3858518,351.331937 75.3858518,351.331937" id="Fill-113" fill="#071B80"></path>
                        <path d="M129.86992,352.545006 C129.86992,352.545006 127.690466,370.694599 130.493247,376.397281 C133.292522,382.100838 149.89968,385.625813 146.474448,370.072648 C143.049216,354.515978 142.842317,353.168709 143.049216,350.782518 C143.257869,348.398079 129.86992,352.545006 129.86992,352.545006" id="Fill-115" fill="#071B80"></path>
                        <path d="M130.405929,183.277422 C123.96751,198.511728 117.543118,213.749537 111.14941,228.999611 C106.292542,240.584551 101.483892,252.187011 96.7427466,263.818379 C95.9712585,265.730661 95.2129208,267.648198 94.4598432,269.56924 C94.2906418,270.001102 92.8896895,273.795881 93.2833238,272.418828 C90.4069005,282.467286 88.8691845,338.428898 89.2522985,353.467859 C89.4101028,359.647078 72.9370784,358.955923 72.5530877,354.480501 C72.3304082,351.877941 61.2218561,280.964091 69.27514,257.620764 C78.7854842,230.049921 86.9974491,202.002539 96.0431472,174.277522 C98.9239539,165.446687 104.783757,157.984146 115.120821,158.611354 C127.184089,159.345432 135.122527,172.169895 130.405929,183.277422" id="Fill-117" fill="url(#linearGradient-2)"></path>
                        <path d="M152.911377,175.8324 C152.321364,236.578659 149.559787,295.067496 144.318928,355.619285 C143.870939,360.805134 127.211179,360.855941 127.023567,355.416932 C126.556291,341.74276 123.018843,248.555165 120.728926,214.30579 C120.056504,204.250324 119.34463,194.198363 118.637141,184.146402 C118.296985,179.329344 117.456238,174.27577 119.128088,169.613762 C125.663819,151.395841 153.008689,156.504603 152.911377,175.8324" id="Fill-119" fill="url(#linearGradient-2)"></path>
                        <path d="M156.932408,183.156185 C156.922764,202.833502 88.0928746,195.629377 92.5324379,178.756098 C104.545735,133.100483 103.940818,78.642942 103.940818,78.642942 C118.652571,70.1292154 147.65351,65.3813609 149.562943,87.5561191 C149.562943,87.5561191 156.956955,141.195487 156.932408,183.156185 Z" id="Fill-121" fill="url(#linearGradient-3)"></path>
                        <path d="M138.430545,158.050021 C138.430545,159.250124 137.457418,160.225099 136.255474,160.225099 L115.332366,160.225099 C114.129546,160.225099 113.155542,159.250124 113.155542,158.050021 L113.155542,123.807653 C113.155542,122.608425 114.129546,121.634327 115.332366,121.634327 L136.255474,121.634327 C137.457418,121.634327 138.430545,122.608425 138.430545,123.807653 L138.430545,158.050021 Z" id="Fill-123" fill="#0075FF"></path>
                        <path d="M172.242238,169.445572 C171.098157,169.473604 169.936541,169.454332 168.59608,169.371113 C166.051046,169.218691 163.762883,168.917352 162.055965,168.676455 C157.562924,168.027348 153.464393,167.194283 150.393345,166.540796 C147.222353,165.86541 143.898817,165.09454 140.239509,164.194025 C133.788816,162.600603 128.604942,161.176246 125.266503,160.237187 L121.092577,159.04234 L119.603956,158.606098 C118.583487,158.303882 117.749754,157.644263 117.25267,156.747251 C116.75734,155.846736 116.660027,154.81745 116.978266,153.843351 C117.481487,152.312125 118.949067,151.233783 120.630561,151.157572 C120.941786,151.146185 121.256518,151.168084 121.564237,151.22152 L127.313577,152.295481 C130.687084,152.903416 135.899888,153.816196 142.333924,154.764891 C145.966055,155.300995 149.242249,155.735485 152.350119,156.092888 C156.664316,156.584318 160.169326,156.889161 163.383276,157.043335 C164.760557,157.107282 166.058937,157.139694 167.242469,157.13619 L169.347405,157.12743 L168.599587,155.258072 C168.469837,154.938336 168.34184,154.615973 168.207706,154.297989 C166.949655,151.283715 165.395281,147.926929 163.31577,143.723063 C161.776301,140.615058 160.045713,137.244256 158.026693,133.426701 C155.081012,127.859798 151.918787,122.092293 148.08414,115.276231 C145.693404,111.02769 143.242176,106.739729 140.798838,102.531483 L137.958359,97.6785099 C136.541626,95.2607833 136.204977,92.4611259 137.001889,89.7937427 C137.801431,87.1263594 139.641606,84.911862 142.185763,83.5549567 C143.687535,82.7543037 145.311167,82.3101778 147.014577,82.2357189 C151.161326,82.0535134 154.988082,84.0779215 157.004472,87.520554 C157.175426,87.8157619 157.346381,88.1460094 157.496295,88.4736289 L159.83443,93.6568494 C161.84556,98.1594273 163.858442,102.743472 165.810833,107.27671 C167.790401,111.872142 170.783425,118.887929 173.917595,126.721889 C175.597335,130.921376 176.96848,134.463871 178.224778,137.878472 C179.487213,141.306212 180.953917,145.408464 182.266324,149.826071 C182.927349,152.120283 183.46739,154.079868 183.897846,156.58169 L183.934667,156.812951 C183.973241,157.052095 184.011816,157.289488 184.041623,157.568052 C184.087211,157.933339 184.131046,158.281982 184.1591,158.709464 L184.173127,158.917073 C184.181894,159.040588 184.191537,159.167606 184.195044,159.333168 L184.202934,160.105789 L184.201181,160.277483 L184.191537,160.48334 L184.157346,160.960753 L184.118772,161.351444 L184.064417,161.743011 L184.023213,161.945364 C183.942557,162.368466 183.811053,162.842375 183.67955,163.20153 C183.556813,163.517762 183.428816,163.813846 183.301696,164.061751 C183.029045,164.599607 182.694149,165.106804 182.311912,165.569326 C181.695598,166.317419 180.979341,166.941123 180.126321,167.474599 C178.796381,168.289268 177.809226,168.594988 176.74843,168.879684 C175.04765,169.29315 173.731737,169.379873 172.633243,169.429805 L172.242238,169.445572 Z" id="Fill-125" fill="#FFA985"></path>
                        <path d="M130.72785,162.140797 C130.72785,162.140797 128.120571,161.468914 121.894311,161.694043 C115.667175,161.91742 114.244305,161.144798 112.62944,159.59868 C111.014575,158.051685 112.597879,157.738081 112.120083,156.236638 C111.641409,154.739575 111.07945,154.565253 111.643163,152.87372 C112.207752,151.181312 111.972799,150.554104 111.711545,149.290054 C111.450291,148.027755 113.120387,146.187305 116.310666,148.400926 C119.500068,150.615424 120.979045,147.902489 119.598257,145.805374 C118.217469,143.705631 116.409732,141.283524 117.19963,140.515283 C117.992159,139.744413 123.78621,144.934642 126.105935,148.460493 C128.425659,151.988973 129.815214,152.217605 134.682603,153.329234 C138.16482,154.128135 136.449135,163.308489 136.449135,163.308489 L130.72785,162.140797 Z" id="Fill-127" fill="#FFA985"></path>
                        <path d="M160.275494,90.3328256 C154.409554,79.8709019 145.653164,75.6118486 138.81059,73.0259323 C132.56329,70.6668968 134.941753,86.0650125 135.137255,92.4570963 C135.210897,94.8818309 136.183147,96.9430305 137.392981,99.011238 C139.069214,101.87309 140.737557,104.736695 142.386613,107.612563 C144.690557,111.628092 146.973461,115.655008 149.221296,119.697693 C150.978185,122.854753 170.631845,114.750113 168.768876,109.973351 C166.059024,103.023263 163.937432,96.8641916 160.275494,90.3328256 Z" id="Fill-129" fill="url(#linearGradient-4)"></path>
                        <path d="M127.152528,131.910629 C127.152528,132.660474 126.542351,133.267534 125.793657,133.267534 C125.04321,133.267534 124.434786,132.660474 124.434786,131.910629 L124.434786,128.064166 C124.434786,127.315196 125.04321,126.70726 125.793657,126.70726 C126.542351,126.70726 127.152528,127.315196 127.152528,128.064166 L127.152528,131.910629 Z" id="Fill-131" fill="#071B80"></path>
                        <path d="M135.282523,74.2948008 C136.298608,60.7704233 134.452296,53.6863089 134.379531,53.2027636 C133.823709,49.5017146 130.751783,46.7826481 127.523807,47.1330433 C124.294954,47.4816865 122.132157,50.7622613 122.683596,54.4615583 C122.70113,54.6017163 123.263965,61.4195303 122.301359,73.1218529 C121.948929,77.4509853 134.960777,78.5941495 135.282523,74.2948008" id="Fill-133" fill="#F5A07E"></path>
                        <path d="M113.74275,67.7967224 C118.78723,71.6966206 139.467495,63.8915682 144.31472,49.1355517 C150.771549,29.4722508 115.972175,22.9207372 111.975341,39.5566238 C109.137492,51.3579331 110.539321,65.3185525 113.74275,67.7967224" id="Fill-137" fill="#FFA985"></path>
                        <path d="M111.272848,43.6266389 C110.033207,47.3609754 108.958384,51.0042091 108.357851,53.8021145 C108.059776,55.1791676 111.625278,54.9233791 111.625278,54.9233791 C111.625278,54.9233791 111.864615,51.1189635 111.891792,50.9201143 C111.923353,50.7195131 111.272848,43.6266389 111.272848,43.6266389" id="Fill-139" fill="#FFA985"></path>
                        <path d="M112.241193,17.4770665 C112.241193,17.4770665 105.227693,33.5841366 114.538401,40.1041032 C124.32784,46.9606748 131.197544,42.5620202 130.562743,46.817793 C129.927942,51.0718126 130.326008,52.8740513 131.510561,53.3745758 C134.019077,54.4361084 134.907273,48.833916 138.099691,50.033071 C139.698091,50.6317719 139.949732,52.6110788 136.312778,55.6045832 C133.554375,57.8784194 134.562691,63.0993015 134.562691,63.0993015 C134.562691,63.0993015 140.590671,60.2197519 146.429262,54.2870906 C156.149434,44.4124705 156.514182,19.9542682 134.303159,16.3085917 C124.432179,14.6895573 118.175355,20.412717 112.241193,17.4770665" id="Fill-231" fill="#071B80"></path>
                    </g>
                    <g id="Mujer" transform="translate(0.000000, 121.580986)">
                        <g id="Silla" transform="translate(0.000000, 84.940141)">
                            <g id="Group-150" transform="translate(63.262570, 143.232394)">
                                <mask id="mask-6" fill="white">
                                    <use xlink:href="#path-5"></use>
                                </mask>
                                <g id="Clip-149"></g>
                                <path d="M3.57619978,0.209254243 C1.65608089,0.622638137 0.438043352,2.49482304 0.857041341,4.39177681 L13.929086,63.4638227 C14.293545,65.1045468 15.7669636,66.2276869 17.4039991,66.2276869 C17.656783,66.2276869 17.9104326,66.1986475 18.167545,66.1439852 C20.0893953,65.7323095 21.3057015,63.8592705 20.8867035,61.9640249 L7.81465877,2.89027086 C7.45019978,1.24698447 5.97678123,0.128114843 4.33888,0.128114843 C4.08696179,0.128114843 3.83244648,0.15459191 3.57619978,0.209254243" id="Fill-148" fill="url(#linearGradient-7)" mask="url(#mask-6)"></path>
                            </g>
                            <g id="Group-153" transform="translate(3.329609, 133.239437)">
                                <mask id="mask-9" fill="white">
                                    <use xlink:href="#path-8"></use>
                                </mask>
                                <g id="Clip-152"></g>
                                <path d="M22.4413684,2.65035446 L0.540278015,46.3183862 C-0.338444956,48.0746763 0.405428853,50.1949599 2.20341768,51.0537435 C2.71549195,51.2998479 3.2601768,51.4151555 3.79516661,51.4151555 C5.13572593,51.4151555 6.42428459,50.6871685 7.05358068,49.4334132 L28.9537897,5.76279994 C29.8325127,4.00650986 29.0895202,1.8879473 27.29065,1.02486109 C26.7785757,0.781338263 26.236535,0.666030634 25.7015452,0.666030634 C24.3609859,0.666030634 23.0715458,1.3931571 22.4413684,2.65035446" id="Fill-151" fill="url(#linearGradient-10)" mask="url(#mask-9)"></path>
                            </g>
                            <g id="Group-156" transform="translate(24.972067, 139.901408)">
                                <mask id="mask-12" fill="white">
                                    <use xlink:href="#path-11"></use>
                                </mask>
                                <g id="Clip-155"></g>
                                <path d="M1.05150142,1.10201908 C0.339729279,1.78368923 0.326629178,2.90376011 1.01918784,3.60090323 L49.3349794,52.3244162 C49.6886821,52.681154 50.1550457,52.8590931 50.6214093,52.8590931 C51.0729261,52.8590931 51.5253162,52.6914693 51.8755256,52.3562217 C52.5855511,51.6754112 52.5995245,50.5553403 51.9060925,49.856478 L3.59117428,1.13296502 C3.2383449,0.777946388 2.77198132,0.600007269 2.30561773,0.600007269 C1.85322758,0.600007269 1.3999641,0.767631077 1.05150142,1.10201908" id="Fill-154" fill="url(#linearGradient-13)" mask="url(#mask-12)"></path>
                            </g>
                            <g id="Group-159" transform="translate(9.988827, 146.563380)">
                                <mask id="mask-15" fill="white">
                                    <use xlink:href="#path-14"></use>
                                </mask>
                                <g id="Clip-158"></g>
                                <path d="M57.2898305,0.662167765 L1.94217537,23.8471729 C1.0240719,24.2307735 0.577614768,25.325862 0.942424095,26.2866903 C1.22124265,27.0228381 1.89353413,27.4712856 2.60317513,27.4712856 C2.82292932,27.4712856 3.04615788,27.4292721 3.26330629,27.3379387 L58.61183,4.15384689 C59.5290649,3.76841958 59.975522,2.67698444 59.6107127,1.71341617 C59.3318941,0.979094957 58.6604712,0.528820877 57.9499616,0.528820877 C57.7302074,0.527907542 57.5069789,0.571747615 57.2898305,0.662167765" id="Fill-157" fill="url(#linearGradient-16)" mask="url(#mask-15)"></path>
                            </g>
                            <g id="Group-162">
                                <mask id="mask-18" fill="white">
                                    <use xlink:href="#path-17"></use>
                                </mask>
                                <g id="Clip-161"></g>
                                <path d="M0.687373377,64.6532184 C-10.2305098,206.173905 135.820051,139.919263 137.551246,121.542727 C138.783413,108.46166 132.662182,95.1406856 111.838553,88.7989072 C100.060793,85.2099317 85.0257104,66.5821067 78.6096388,34.9432604 C74.0532598,12.4874284 61.621571,2.23796571 46.3382948,0.8142833 C45.5083421,0.736357264 44.6801496,0.697832032 43.8537173,0.697832032 C23.0767349,0.699583179 3.74490873,25.0107553 0.687373377,64.6532184" id="Fill-160" fill="url(#linearGradient-19)" mask="url(#mask-18)"></path>
                            </g>
                        </g>
                        <path d="M112.918835,297.042773 C112.918835,297.042773 115.838569,288.789817 118.490003,283.96427 C121.144068,279.13697 104.030743,278.739882 104.030743,278.739882 C104.030743,278.739882 102.969819,283.804734 100.050085,286.908686 C97.1303509,290.013516 99.2557068,300.35798 99.2557068,300.35798 L112.918835,297.042773 Z" id="Fill-163" fill="#FFA985"></path>
                        <path d="M180.47587,252.096903 C180.47587,252.096903 181.596416,264.878247 185.699827,271.741831 C186.010213,272.260764 183.809452,277.613132 177.441275,275.623306 C170.057768,273.31616 165.501054,265.674177 165.501054,265.275335 C165.501054,264.878247 167.342327,263.686105 166.495341,256.722591 C165.87983,251.637578 180.47587,252.096903 180.47587,252.096903" id="Fill-165" fill="#FFA985"></path>
                        <polygon id="Fill-167" fill="#0075FF" points="84.3154363 165.883537 124.783126 160.468055 153.412302 130.856467 114.22649 136.280714"></polygon>
                        <path d="M127.094451,159.525824 C126.713044,159.908888 126.094025,159.908888 125.713495,159.526701 C125.331212,159.146267 125.329458,158.527405 125.710865,158.145218 L152.720597,131.144071 C153.102004,130.761884 153.720146,130.761008 154.102429,131.143195 C154.484713,131.524505 154.48559,132.14249 154.103306,132.524677 L127.094451,159.525824 Z" id="Fill-169" fill="#0075FF"></path>
                        <path d="M31.7855623,186.500148 C30.4063606,194.784661 34.1169656,203.315491 41.1181898,207.95608 C47.4451571,212.152246 54.7129276,211.526371 61.9342279,211.648215 C80.7099593,211.969918 101.435687,212.189939 124.214874,213.20063 C119.412657,234.352391 111.902013,258.279388 103.291867,278.10752 C101.725907,281.707615 117.41619,289.038414 118.972504,286.316648 C121.150468,282.506175 123.304759,278.680801 125.430991,274.839648 C135.109077,257.358984 145.035296,239.408477 151.449943,220.42098 C154.189934,212.314413 156.63269,202.907884 153.049221,194.663693 C150.828294,189.554136 145.606091,185.026625 140.390025,184.127259 C129.652769,182.272426 119.001439,179.70669 108.27032,177.759817 C96.8614372,175.684963 85.4306345,173.719681 73.9972013,171.771054 C66.2813875,170.452685 57.1662057,167.473206 49.2925685,168.850306 C40.3992163,170.404474 33.2682261,177.601156 31.7855623,186.500148 C29.834689,198.21207 33.7364357,174.78998 31.7855623,186.500148" id="Fill-171" fill="url(#linearGradient-20)"></path>
                        <path d="M68.0005234,215.737877 C81.5347622,213.34921 103.089063,201.456713 119.917429,194.302106 C127.116809,191.244612 136.178506,187.570885 143.611991,185.116474 C145.426961,184.516897 164.542013,252.5891 165.779174,258.31226 C166.328925,260.876243 181.565027,258.872392 181.350212,254.581556 C181.163454,250.855234 176.459438,199.321376 171.013652,180.292681 C168.749762,172.390355 165.509997,163.817449 158.894563,158.499267 C155.639016,155.883567 150.546579,153.303806 146.234491,153.856925 C146.250274,153.855171 146.550138,153.847282 146.376532,153.849912 C141.492773,153.953348 136.689679,154.803626 131.92078,155.791526 C121.024823,158.052214 110.285813,161.134252 99.6081792,164.25486 C81.5303783,169.542362 46.0735836,180.621396 28.2000763,186.562823 C28.2000763,186.562823 23.8993869,223.517482 68.0005234,215.737877" id="Fill-175" fill="url(#linearGradient-21)"></path>
                        <path d="M68.6212081,75.6855224 C60.2556877,61.9557244 37.8894725,62.3291455 35.1696481,73.5063564 C35.0170854,74.119959 19.787998,147.918829 28.1447504,193.231633 C30.8207349,207.750348 92.1123538,189.127507 85.4688628,170.78517 C64.2442373,112.194881 82.4176092,98.3335969 68.6212081,75.6855224 Z" id="Fill-177" fill="url(#linearGradient-22)"></path>
                        <path d="M91.9686468,160.940792 C91.5872401,161.323855 90.9682214,161.323855 90.5876915,160.941669 C90.205408,160.561235 90.2036544,159.942373 90.5850611,159.560186 L113.53873,136.567617 C113.920137,136.185431 114.538279,136.184554 114.920562,136.566741 C115.302846,136.948051 115.303723,137.566037 114.921439,137.9491 L91.9686468,160.940792 Z" id="Fill-179" fill="#00B8FF"></path>
                        <path d="M11.1114777,156.244628 C10.6169642,163.890117 9.84625962,175.431107 18.7290902,177.935482 C23.7662891,179.358164 72.5495217,171.859939 78.3907435,171.198125 C82.5388702,170.708996 82.2810919,161.312109 77.7533121,161.682024 C73.1282078,162.066841 29.0384696,163.918168 26.4028178,163.698147 C25.0788543,163.590328 26.0012447,158.890132 26.1292571,157.608579 C26.673748,152.202739 35.6942358,112.938305 39.2882268,98.7211308 C40.397375,94.3400078 21.5181816,87.5903784 20.1845733,93.5975486 C15.6585471,113.979676 12.5450408,135.334802 11.1114777,156.244628 C10.9475167,158.777054 11.4586893,151.20695 11.1114777,156.244628" id="Fill-181" fill="#FFA985"></path>
                        <path d="M33.3737925,107.976012 C37.6192436,107.828748 39.03001,106.36925 40.0655073,102.416772 C41.5017008,96.9223984 42.9975166,91.435914 44.7055172,86.0195556 C46.1583698,81.4070167 54.688728,78.6668425 51.3244579,74.6687828 C47.9119639,70.6181286 50.0162767,65.1518054 44.7826753,65.9468592 C26.6391146,68.7054414 23.1459552,77.5185289 21.9017803,82.4404989 C20.4357756,88.2346612 19.3222434,93.1802987 17.9088466,99.9229155 C16.5997887,106.169391 29.505364,108.112758 33.3737925,107.976012 Z" id="Fill-185" fill="url(#linearGradient-23)"></path>
                        <path d="M76.2496052,171.476876 C81.2245515,171.207767 83.6901047,170.874669 86.7869518,170.643253 C101.973076,169.490556 104.435122,162.758458 104.593822,161.692543 C105.291753,156.994976 94.8210429,159.732521 92.2344916,159.477437 C89.6514476,159.222354 89.0876671,157.390312 85.8461486,158.497426 C82.6055068,159.605417 82.6055068,161.123646 75.8366338,161.806498 C73.4491155,162.047556 74.4697072,171.570669 76.2496052,171.476876" id="Fill-187" fill="#FFA985"></path>
                        <path d="M102.218316,283.964358 C102.218316,283.964358 100.550648,289.982047 103.515099,292.944871 C106.477796,295.908572 113.981425,293.684701 114.44262,296.28024 C114.906446,298.87315 112.774952,306.18817 114.44262,313.687271 C116.111165,321.188125 111.756991,326.185481 105.829843,323.222657 C99.9026954,320.260709 98.7917935,314.982849 98.1420869,306.000583 C97.4958875,297.021823 89.528433,295.815655 92.8637689,289.890883 C96.1991047,283.964358 102.218316,283.964358 102.218316,283.964358" id="Fill-189" fill="#071B80"></path>
                        <path d="M187.163551,271.792497 C187.163551,271.792497 186.484911,276.853842 191.793917,283.828752 C197.102046,290.805414 199.204605,293.704248 199.140599,295.002456 C199.0801,296.298911 197.967444,298.891821 194.573363,297.410408 C191.174898,295.926367 170.1835,283.644671 164.317728,279.076837 C158.451956,274.509004 158.513332,272.59544 159.872367,270.433805 C161.229649,268.273924 165.860014,264.074252 165.860014,264.074252 C165.860014,264.074252 167.344432,267.594578 173.333832,271.237625 C179.323233,274.878918 183.582712,273.150312 185.125875,271.050914 C186.670792,268.95327 187.174073,270.615256 187.163551,271.792497" id="Fill-191" fill="#071B80"></path>
                        <path d="M127.727235,156.427481 C126.737331,157.548621 124.904825,158.267413 123.63347,158.031614 C122.362114,157.796692 122.134147,156.69659 123.124051,155.574574 C124.113955,154.454311 125.94646,153.736395 127.217816,153.971318 C128.489172,154.207116 128.717139,155.306342 127.727235,156.427481" id="Fill-233" fill="#FFFFFF"></path>
                        <path d="M178.105862,0.210978622 C177.044189,-0.911161905 169.886884,3.81128898 168.343907,5.30309641 C166.800054,6.79490383 158.802879,11.8870216 156.170176,14.0717355 C153.960038,15.9051782 150.308619,19.4660691 150.049996,19.7201056 C141.006928,27.9868036 130.748766,36.150135 118.243645,44.6139303 C108.152055,51.4457601 88.4151094,63.9916591 69.654798,66.7431372 C66.5784892,67.194271 63.6319307,67.2757379 61.1009237,67.5490461 C54.6984491,68.2402006 52.5496794,73.2911469 52.6548823,77.4117941 C52.7714822,81.8907203 55.5409491,86.8610758 61.352534,87.1886953 C61.9521907,87.2228588 62.5790247,87.2044631 63.2155024,87.136136 C74.2863568,85.9395365 110.172827,68.8507641 119.897084,60.9090576 C137.449315,46.5735153 146.674735,34.1572625 156.507702,23.2310652 C156.519975,23.2170494 156.530496,23.1925217 156.540139,23.1618621 C158.294398,21.5526723 159.963618,20.4033762 160.962169,20.3096455 C163.197731,20.1002844 167.618884,19.332043 168.280786,18.604097 C170.556675,16.1022755 170.920502,14.0620996 170.845107,9.73909924 C170.798642,7.11901937 179.166658,1.33311915 178.105862,0.210978622" id="Fill-141" fill="#FFA985"></path>
                        <path d="M81.4348954,62.4263563 C84.9407828,61.5915398 93.3806874,77.5923352 89.4951927,79.9443628 C81.7627779,84.6247662 73.7130008,89.0975605 65.5588975,92.0986952 C51.3696532,97.3178312 40.5600528,71.2712064 54.7501738,66.0538223 C64.9776514,67.7217033 73.286929,64.3675456 81.4348954,62.4263563 Z" id="Fill-143" fill="url(#linearGradient-24)"></path>
                        <path d="M69.4497812,45.4010751 C69.4497812,45.4010751 85.2084541,26.7107378 71.4480016,14.9076521 C57.6989476,3.11245571 42.5163304,28.2640291 43.3221068,28.9398686 C44.1243761,29.6174613 69.4497812,45.4010751 69.4497812,45.4010751" id="Fill-193" fill="#071B80"></path>
                        <path d="M41.9419406,70.5876238 C41.4763614,49.9819696 45.6525456,45.6157483 45.7902028,44.8873143 C46.8037801,39.2991471 51.2105619,35.353682 55.6199742,36.0838692 C60.0276328,36.8114266 62.7720074,41.9271197 61.7628141,47.5144103 C61.7294958,47.7265415 59.1701253,54.1649867 59.8794541,71.9980334 C60.251216,81.3440786 42.0199756,73.957179 41.9419406,70.5876238" id="Fill-195" fill="#F4A17E"></path>
                        <path d="M39.4301802,42.6497683 C28.5342236,7.36323202 59.1475916,12.9268551 67.508728,25.6634933 C74.5906175,36.4541345 76.1934025,58.5788936 68.2618966,61.4382821 C61.0528715,64.0390808 43.7212248,56.5373499 39.4301802,42.6497683" id="Fill-199" fill="#FFA985"></path>
                        <path d="M71.7462003,35.4693899 C71.7462003,35.4693899 72.9868681,41.2004388 74.4879446,44.4122105 C75.9898979,47.6231056 73.7382831,47.7914081 71.9233133,48.2349552 C70.1074667,48.6785022 69.9777007,43.2104259 69.9777007,43.2104259 L71.7462003,35.4693899 Z" id="Fill-201" fill="#FFA985"></path>
                        <path d="M72.4564936,28.8343289 C72.4564936,28.8343289 71.8453661,37.8358801 61.668383,36.8199294 C51.0030241,35.755767 43.4573089,45.6593141 45.2906915,61.0467159 C45.9342605,66.4543086 25.6004608,51.704177 30.247485,29.6539268 C34.8971396,7.60280004 62.333872,5.59456616 72.0417686,15.4402593 C81.7487884,25.2841992 72.4564936,28.8343289 72.4564936,28.8343289" id="Fill-203" fill="#071B80"></path>
                        <path d="M37.3092082,30.5433877 C35.7870886,39.2197294 29.5486778,45.3750408 23.3777804,44.2924703 C17.2068829,43.2090234 13.4401629,35.2970552 14.9631594,26.6224666 C16.4870326,17.9461249 22.7236898,11.789937 28.8945872,12.873384 C35.0654846,13.956831 38.8330814,21.8687991 37.3092082,30.5433877" id="Fill-205" fill="#071B80"></path>
                        <path d="M15.5926996,27.2544774 C15.0324263,21.4331412 15.6935313,16.0211657 17.2244189,11.7645163 C14.243309,15.1480967 12.3415363,19.9280615 12.2249223,25.3093569 C12.0565772,32.975884 15.5646421,39.779861 20.7973667,43.2458395 C18.1441789,39.2363844 16.2020735,33.6070182 15.5926996,27.2544774" id="Fill-207" fill="#071B80"></path>
                    </g>
                    <path d="M53.273743,117.066617 L53.273743,42.6817828 L95.9378819,0 L198.710824,0" id="Path-5" stroke="#D05898" stroke-width="3" stroke-dasharray="2,6" fill-rule="nonzero"></path>
                </g>
                <g id="Chat" transform="translate(564.000000, 72.000000)">
                    <path d="M13.6478424,0 L61.7291504,0 C64.6405724,0 67,2.32189005 67,5.18699256 L67,32.4770449 C67,35.3401863 64.6405724,37.6620764 61.7291504,37.6620764 L56.2669958,37.6620764 L49.4597284,46.6201792 C48.0050138,48.5361307 45.0856207,48.5361307 43.6328988,46.6201792 L36.8256314,37.6620764 L13.6478424,37.6620764 C10.7364203,37.6620764 8.375,35.3401863 8.375,32.4770449 L8.375,5.18699256 C8.375,2.32189005 10.7364203,0 13.6478424,0" id="Fill-1" fill-opacity="0.614894701" fill="#48BECB"></path>
                    <g id="Group-5" transform="translate(0.000000, 8.285714)">
                        <mask id="mask-26" fill="white">
                            <use xlink:href="#path-25"></use>
                        </mask>
                        <g id="Clip-4"></g>
                        <path d="M5.23237514,0.958297423 L52.9701071,0.958297423 C55.8586267,0.958297423 58.2010974,3.26217741 58.2010974,6.10265729 L58.2010974,33.1562354 C58.2010974,35.9947711 55.8586267,38.298651 52.9701071,38.298651 L47.54523,38.298651 L40.788864,47.1797682 C39.3426258,49.079254 36.4461924,49.079254 35.0019327,47.1797682 L28.2435882,38.298651 L5.23237514,38.298651 C2.34187713,38.298651 -0.000593531419,35.9947711 -0.000593531419,33.1562354 L-0.000593531419,6.10265729 C-0.000593531419,3.26217741 2.34187713,0.958297423 5.23237514,0.958297423" id="Fill-3" fill="#48BECB" mask="url(#mask-26)"></path>
                    </g>
                    <path d="M18.425,27.3428571 C18.425,29.6309623 16.5487509,31.4857143 14.2384732,31.4857143 C11.9243028,31.4857143 10.05,29.6309623 10.05,27.3428571 C10.05,25.0547519 11.9243028,23.2 14.2384732,23.2 C16.5487509,23.2 18.425,25.0547519 18.425,27.3428571" id="Fill-6" fill="#F8F8FB"></path>
                    <path d="M33.5,27.3428571 C33.5,29.6309623 31.6237509,31.4857143 29.3134732,31.4857143 C26.9993028,31.4857143 25.125,29.6309623 25.125,27.3428571 C25.125,25.0547519 26.9993028,23.2 29.3134732,23.2 C31.6237509,23.2 33.5,25.0547519 33.5,27.3428571" id="Fill-8" fill="#F8F8FB"></path>
                    <path d="M48.575,27.3428571 C48.575,29.6309623 46.6987509,31.4857143 44.3884732,31.4857143 C42.0743028,31.4857143 40.2,29.6309623 40.2,27.3428571 C40.2,25.0547519 42.0743028,23.2 44.3884732,23.2 C46.6987509,23.2 48.575,25.0547519 48.575,27.3428571" id="Fill-10" fill="#F8F8FB"></path>
                </g>
                <g id="Chat" transform="translate(88.000000, 62.000000)">
                    <g id="Group-3" transform="translate(13.333333, 0.000000)">
                        <mask id="mask-28" fill="white">
                            <use xlink:href="#path-27"></use>
                        </mask>
                        <g id="Clip-2"></g>
                        <path d="M73.6057625,0.805648452 L7.27058257,0.805648452 C3.25419472,0.805648452 -0.000170474866,4.00844498 -0.000170474866,7.96118916 L-0.000170474866,45.6112452 C-0.000170474866,49.5639894 3.25419472,52.7684636 7.27058257,52.7684636 L14.8089811,52.7684636 L24.2004415,65.128339 C26.205226,67.7690942 30.2318423,67.7690942 32.2383315,65.128339 L41.6297918,52.7684636 L73.6057625,52.7684636 C77.6204456,52.7684636 80.8782203,49.5639894 80.8782203,45.6112452 L80.8782203,7.96118916 C80.8782203,4.00844498 77.6204456,0.805648452 73.6057625,0.805648452" id="Fill-1" fill-opacity="0.33483356" fill="#F198CE" mask="url(#mask-28)"></path>
                    </g>
                    <g id="Group-6" transform="translate(0.000000, 13.387755)">
                        <mask id="mask-30" fill="white">
                            <use xlink:href="#path-29"></use>
                        </mask>
                        <g id="Clip-5"></g>
                        <path d="M73.6057625,0.805648452 L7.27058257,0.805648452 C3.25419472,0.805648452 -0.000170474866,4.00844498 -0.000170474866,7.96118916 L-0.000170474866,45.6112452 C-0.000170474866,49.5639894 3.25419472,52.7684636 7.27058257,52.7684636 L14.8089811,52.7684636 L24.2004415,65.128339 C26.205226,67.7690942 30.2318423,67.7690942 32.2383315,65.128339 L41.6297918,52.7684636 L73.6057625,52.7684636 C77.6204456,52.7684636 80.8782203,49.5639894 80.8782203,45.6112452 L80.8782203,7.96118916 C80.8782203,4.00844498 77.6204456,0.805648452 73.6057625,0.805648452" id="Fill-4" fill="#F198CE" mask="url(#mask-30)"></path>
                    </g>
                    <path d="M65.6943467,26.7755102 L10.97232,26.7755102 C9.51559934,26.7755102 8.33333333,25.6509388 8.33333333,24.2653061 C8.33333333,22.8796735 9.51559934,21.755102 10.97232,21.755102 L65.6943467,21.755102 C67.1510673,21.755102 68.3333333,22.8796735 68.3333333,24.2653061 C68.3333333,25.6509388 67.1510673,26.7755102 65.6943467,26.7755102" id="Fill-7" fill="#D380B2"></path>
                    <path d="M65.6943467,38.4897959 L10.97232,38.4897959 C9.51559934,38.4897959 8.33333333,37.3652245 8.33333333,35.9795918 C8.33333333,34.5939592 9.51559934,33.4693878 10.97232,33.4693878 L65.6943467,33.4693878 C67.1510673,33.4693878 68.3333333,34.5939592 68.3333333,35.9795918 C68.3333333,37.3652245 67.1510673,38.4897959 65.6943467,38.4897959" id="Fill-9" fill="#D380B2"></path>
                    <path d="M40.6834242,50.2040816 L10.9832425,50.2040816 C9.51872602,50.2040816 8.33333333,49.0795102 8.33333333,47.6938776 C8.33333333,46.3082449 9.51872602,45.1836735 10.9832425,45.1836735 L40.6834242,45.1836735 C42.146174,45.1836735 43.3333333,46.3082449 43.3333333,47.6938776 C43.3333333,49.0795102 42.146174,50.2040816 40.6834242,50.2040816" id="Fill-11" fill="#D380B2"></path>
                </g>
            </g>
        </g>
    </g>
</svg>