<?xml version="1.0" encoding="UTF-8"?>
<svg width="540px" height="517px" viewBox="0 0 540 517" version="1.1" xmlns="http://www.w3.org/2000/svg" xmlns:xlink="http://www.w3.org/1999/xlink">
    <!-- Generator: Sketch 51.3 (57544) - http://www.bohemiancoding.com/sketch -->
    <title>People Chatting</title>
    <desc>Created with Sketch.</desc>
    <defs>
        <linearGradient x1="0%" y1="50%" x2="100.010781%" y2="50%" id="linearGradient-1">
            <stop stop-color="#261984" offset="0%"></stop>
            <stop stop-color="#4F2D9B" offset="56%"></stop>
        </linearGradient>
        <linearGradient x1="-0.0862373488%" y1="49.9781755%" x2="100.086237%" y2="49.9781755%" id="linearGradient-2">
            <stop stop-color="#261984" offset="0%"></stop>
            <stop stop-color="#4F2D9B" offset="56%"></stop>
        </linearGradient>
        <linearGradient x1="100%" y1="71.7315003%" x2="70.0969327%" y2="29.2547191%" id="linearGradient-3">
            <stop stop-color="#3F0D83" offset="0%"></stop>
            <stop stop-color="#5B5D82" offset="100%"></stop>
        </linearGradient>
        <linearGradient x1="4.46566907%" y1="25.0399639%" x2="68.1312709%" y2="86.5445013%" id="linearGradient-4">
            <stop stop-color="#AEBF97" offset="0%"></stop>
            <stop stop-color="#48BDCA" offset="100%"></stop>
        </linearGradient>
        <linearGradient x1="0.000155041191%" y1="50.0005494%" x2="100%" y2="17.1817408%" id="linearGradient-5">
            <stop stop-color="#3F0D83" offset="0%"></stop>
            <stop stop-color="#5B5D82" offset="100%"></stop>
        </linearGradient>
        <linearGradient x1="54.7714743%" y1="6.82232101%" x2="100%" y2="85.8051649%" id="linearGradient-6">
            <stop stop-color="#FF3B87" offset="0%"></stop>
            <stop stop-color="#D31459" offset="100%"></stop>
        </linearGradient>
        <linearGradient x1="16.1048521%" y1="6.12262658%" x2="109.586308%" y2="86.3702764%" id="linearGradient-7">
            <stop stop-color="#FF3B87" offset="0%"></stop>
            <stop stop-color="#D31459" offset="100%"></stop>
        </linearGradient>
        <linearGradient x1="50%" y1="100%" x2="100%" y2="8.17877573%" id="linearGradient-8">
            <stop stop-color="#FFD812" offset="0%"></stop>
            <stop stop-color="#FF8011" offset="100%"></stop>
        </linearGradient>
        <linearGradient x1="65.3250971%" y1="0%" x2="-4.55696547%" y2="95.2876208%" id="linearGradient-9">
            <stop stop-color="#E2427B" offset="0%"></stop>
            <stop stop-color="#FF8011" offset="100%"></stop>
        </linearGradient>
        <linearGradient x1="86.9253428%" y1="0%" x2="36.6826039%" y2="66.4763168%" id="linearGradient-10">
            <stop stop-color="#E2427B" offset="0%"></stop>
            <stop stop-color="#FF8011" offset="100%"></stop>
        </linearGradient>
        <polygon id="path-11" points="-0.000121428571 0.580241667 57.6081429 0.580241667 57.6081429 48.3329708 -0.000121428571 48.3329708"></polygon>
        <polygon id="path-13" points="0 0.580241667 57.6092357 0.580241667 57.6092357 48.3329708 0 48.3329708"></polygon>
    </defs>
    <g id="Norma-Mokcup" stroke="none" stroke-width="1" fill="none" fill-rule="evenodd">
        <g id="Desktop-HD" transform="translate(-754.000000, -459.000000)">
            <g id="People-Chatting" transform="translate(754.000000, 459.000000)">
                <g id="Computadora" transform="translate(0.000000, 200.000000)" fill-rule="nonzero">
                    <path d="M13.5491879,0.000126377678 L421.431316,0.000126377678 C428.877382,0.00654015321 434.910182,5.99283949 434.91018,13.3750951 L434.91018,300.826531 L0,300.826531 L0,13.3750951 C-3.38552669e-05,9.81774315 1.42933327,6.40693271 3.97199763,3.89696262 C6.51466199,1.38699254 9.96111948,-0.0153269326 13.5491879,0.000126377678 Z" id="Shape" fill="#1B125B"></path>
                    <path d="M28.0429368,0 L435.969039,0 C443.420486,0 449.461078,5.98818 449.461078,13.3749744 L449.461078,300.826531 L14.5508982,300.826531 L14.5508982,13.3749744 C14.5508982,5.98818 20.5914896,0 28.0429368,0 Z" id="Shape" fill="url(#linearGradient-1)"></path>
                    <path d="M21.0179641,276.566327 L21.0179641,14.6498363 C21.0244088,12.8142678 22.5196073,11.3278355 24.3660008,11.3214286 L433.178909,11.3214286 C434.066864,11.3214286 434.91845,11.6720991 435.546329,12.2962966 C436.174208,12.9204941 436.526946,13.7670877 436.526946,14.6498363 L436.526946,276.566327 L21.0179641,276.566327 Z" id="Shape" fill="#D5E5FD"></path>
                    <path d="M108.370515,317 L527.018707,317 C534.249277,316.79324 540,311.061352 540,304.061224 C540,297.061097 534.249277,291.329209 527.018707,291.122449 L108.370515,291.122449 C101.139945,291.329209 95.3892216,297.061097 95.3892216,304.061224 C95.3892216,311.061352 101.139945,316.79324 108.370515,317 Z" id="Shape" fill="url(#linearGradient-2)"></path>
                    <path d="M0,302.43823 C4.96609223e-14,295.295461 5.97146239,289.505102 13.3376345,289.505102 L198.841416,289.505102 C206.057336,289.711862 211.796407,295.44375 211.796407,302.443878 C211.796407,309.444005 206.057336,315.175893 198.841416,315.382653 L13.3376345,315.382653 C5.96957852,315.376419 -2.80513616e-06,309.582829 0,302.43823 Z" id="Shape" fill="#1B125B"></path>
                    <path d="M436.526946,14.8906843 C436.526946,12.9194388 435.027979,11.3214286 433.178909,11.3214286 L24.3660008,11.3214286 C22.5196073,11.3282991 21.0244088,12.9222917 21.0179641,14.8906843 L21.0179641,33.9642857 L436.526946,33.9642857 L436.526946,14.8906843 Z" id="Shape" fill="#E5EFFE"></path>
                    <rect id="Rectangle-path" fill="#FFFFFF" x="135.808383" y="43.6683673" width="282.934132" height="215.107143"></rect>
                    <path d="M413.744854,17.7911936 C412.371683,17.7856081 411.131115,18.7671361 410.602375,20.2774997 C410.073634,21.7878633 410.361015,23.5291444 411.330338,24.6883345 C412.299661,25.8475247 413.759728,26.1959745 415.02883,25.5709919 C416.297933,24.9460092 417.125741,23.4708716 417.125749,21.8343242 C417.125759,19.6067427 415.613942,17.7987963 413.744854,17.7911936 Z M399.341317,17.7911936 C397.467706,17.7911936 395.948844,19.6013649 395.948844,21.8343242 C395.948844,24.0672836 397.467706,25.8774549 399.341317,25.8774549 C401.214928,25.8774549 402.73379,24.0672836 402.73379,21.8343242 C402.733875,20.7523871 402.370104,19.7155469 401.72384,18.955706 C401.077576,18.1958651 400.202741,17.7764231 399.295004,17.7911936 L399.341317,17.7911936 Z M384.949359,17.7911936 C383.075748,17.7911936 381.556886,19.6013649 381.556886,21.8343242 C381.556886,24.0672836 383.075748,25.8774549 384.949359,25.8774549 C386.82297,25.8774549 388.341832,24.0672836 388.341832,21.8343242 C388.341832,19.6013649 386.82297,17.7911936 384.949359,17.7911936 Z" id="Shape" fill="#FFFFFF"></path>
                    <ellipse id="Oval" fill="#9EC1F7" cx="84.8802395" cy="76.8239796" rx="33.1437126" ry="33.1556122"></ellipse>
                    <path d="M106.079711,95.4234142 C105.814557,95.4272562 105.586313,95.2300009 105.542142,94.9588312 C105.252256,93.1087234 104.629178,91.3317315 103.705449,89.7206574 C102.177106,88.9112484 100.598196,88.2089299 98.9793228,87.6184192 C96.5015742,86.7105544 94.1004637,85.5917424 91.8005392,84.2734213 C91.6393559,84.1628084 91.5329522,83.9845529 91.5093561,83.7856091 C91.4805922,83.6011755 91.534152,83.4131751 91.6549477,83.2745678 C95.5539411,79.7744837 97.8610263,74.7407095 98.0161787,69.3951495 C97.8084522,62.0098609 91.975633,56.1346629 84.8513423,56.1346629 C77.7270516,56.1346629 71.8942324,62.0098609 71.6865059,69.3951495 C71.8457469,74.7396849 74.1520912,79.7718426 78.0477369,83.2745678 C78.1807657,83.3936309 78.2548442,83.5686213 78.2493252,83.7507654 C78.2389189,83.9330715 78.1480078,84.1002073 78.0029395,84.2037339 L77.6109623,83.8204529 L77.9021454,84.2618067 C75.6022209,85.5801278 73.2011104,86.6989399 70.7233618,87.6068046 C69.0857285,88.1946625 67.4944053,88.9130383 65.9636379,89.7555012 C65.0601899,91.3565113 64.4489521,93.1164695 64.1605424,94.9472166 C64.0986298,95.2561379 63.8102025,95.457271 63.5109801,95.4001851 C63.2069715,95.335866 63.0080745,95.0316159 63.0630061,94.7149251 C63.3710676,92.7395574 64.0400814,90.8433843 65.0340918,89.1283141 C65.3252749,88.6172727 66.4116119,88.117846 70.3089858,86.5266491 C72.5082448,85.6846832 74.6617028,84.7192465 76.7598116,83.6346196 C72.9756899,79.9188883 70.7683398,74.7974535 70.6225676,69.3951495 C70.8391287,61.3748863 77.1707717,54.9897959 84.907339,54.9897959 C92.6439064,54.9897959 98.9755494,61.3748863 99.1921105,69.3951495 C99.0338862,74.8074247 96.8103573,79.9331908 93.010069,83.6462342 C95.1032965,84.7332117 97.2531533,85.6987101 99.4496955,86.5382636 C103.33587,88.1294605 104.433406,88.6288873 104.72459,89.1399286 C105.71369,90.8574289 106.382351,92.7526019 106.695675,94.7265397 C106.725156,94.8791569 106.694328,95.0376596 106.610107,95.1664921 C106.525885,95.2953245 106.395321,95.3837021 106.247701,95.4117996 L106.079711,95.4234142 Z" id="Shape" fill="#D5E5FD"></path>
                    <ellipse id="Oval" fill="#E5EFFE" cx="175.419162" cy="73.5892857" rx="18.5928144" ry="18.5994898"></ellipse>
                    <path d="M186.51006,81.1596652 C186.22885,80.6467882 181.054598,78.8517188 179.614806,77.7893307 C181.864048,75.5774845 183.194583,72.472813 183.304273,69.1803243 C183.580563,65.95098 182.149587,62.8300419 179.60969,61.1224961 C177.069794,59.4149503 173.858517,59.4149503 171.31862,61.1224961 C168.778723,62.8300419 167.347747,65.95098 167.624038,69.1803243 C167.722688,72.4713114 169.080026,75.568844 171.369747,77.728274 C169.873713,78.8395074 164.688212,80.6345768 164.418251,81.1474538 C163.860791,82.1405828 163.47929,83.23811 163.293413,84.3834633 C166.285164,88.3030455 170.730219,90.5714286 175.419162,90.5714286 C180.108104,90.5714286 184.553159,88.3030455 187.54491,84.3834633 C187.385547,83.2489107 187.034725,82.156017 186.51006,81.1596652 Z" id="Shape" fill="#FFFFFF"></path>
                    <ellipse id="Oval" fill="#E5EFFE" cx="170.568862" cy="217.533163" rx="18.5928144" ry="18.5994898"></ellipse>
                    <path d="M181.648997,225.122463 C181.367918,224.610353 176.196064,222.817971 174.75694,221.757173 C177.007884,219.545721 178.338057,216.440704 178.444696,213.148861 C178.068791,208.759742 174.672812,205.403061 170.608213,205.403061 C166.543614,205.403061 163.147636,208.759742 162.771731,213.148861 C162.870336,216.434922 164.227044,219.527817 166.515703,221.684015 C165.020363,222.793585 159.837266,224.585967 159.56743,225.098077 C159.012584,226.090964 158.631431,227.186356 158.443114,228.329242 C161.433424,232.247349 165.879009,234.515306 170.568862,234.515306 C175.258716,234.515306 179.704301,232.247349 182.694611,228.329242 C182.532514,227.199229 182.177941,226.111794 181.648997,225.122463 Z" id="Shape" fill="#FFFFFF"></path>
                    <path d="M203.724186,54.9897959 L390.65924,54.9897959 C396.347134,54.9897959 400.958084,59.5352071 400.958084,65.1422559 L400.958084,82.0935447 C400.926149,87.6782313 396.324539,92.1888642 390.65924,92.1887755 L214.011419,92.1887755 C208.323524,92.1887755 203.712575,87.6433644 203.712575,82.0363155 L203.712575,54.9897959 L203.724186,54.9897959 Z" id="Shape" fill="#E5EFFE"></path>
                    <path d="M203.724186,198.933673 L390.65924,198.933673 C396.347134,198.933673 400.958084,203.446953 400.958084,209.014365 L400.958084,235.756043 C400.958084,241.323455 396.347134,245.836735 390.65924,245.836735 L214.011419,245.836735 C208.323524,245.836735 203.712575,241.323455 203.712575,235.756043 L203.712575,198.933673 L203.724186,198.933673 Z" id="Shape" fill="#E5EFFE"></path>
                    <path d="M343.749127,187.612218 L167.125795,187.612218 C164.394211,187.612218 161.774507,186.502989 159.842986,184.52855 C157.911465,182.554111 156.826347,179.876196 156.826347,177.083917 L156.826347,117.261329 C156.832755,111.451345 161.442099,106.744894 167.125795,106.744898 L354.071856,106.744898 L354.071797,177.048309 C354.081077,179.850871 352.996866,182.541555 351.05931,184.524391 C349.121755,186.507227 346.490778,187.618553 343.749127,187.612218 Z" id="Shape" fill="#E5EFFE"></path>
                </g>
                <g id="Mujer" transform="translate(40.000000, 60.000000)" fill-rule="nonzero">
                    <path d="M52.1466622,7.25166661 L50.7552286,17.5977112 C50.4422637,19.9239751 50.9412117,22.2862006 52.1696612,24.2942169 L54.3890553,27.9664943 C58.2244704,34.2525315 57.0406161,42.3410299 51.5601902,47.2942698 C48.4953163,50.0780759 44.0554625,50.806652 40.2453053,49.1510326 C36.4351481,47.4954131 33.975732,43.7689121 33.9775291,39.6541139 L33.9775291,15.7786264 L39.7272548,4.84137931 L52.1466622,7.25166661 Z" id="Shape" fill="url(#linearGradient-3)"></path>
                    <path d="M49.0716279,103.23118 L50.0157679,119.42069 L0,113.577034 C0,101.194929 4.51442161,93.5653892 8.21127181,87.4388825 C5.99283156,77.4913576 1.41749239,41.0167163 9.25296687,35.5034483 C9.61116923,35.5334845 9.97792617,35.5756972 10.3513354,35.6299213 C26.0638462,28.4330103 36.224346,29.491977 50.7807143,36.0035571 C51.1664487,35.808768 51.5678859,35.6415332 51.9855648,35.5034483 C56.4831937,37.2066773 58.2942389,40.5671023 58.2462642,49.2443639 L56.9749345,84.8280415 L56.9021996,84.8798437 L88.988764,98.6129379 L88.1184037,102.873744 C79.8991998,104.331579 60.239723,101.879791 48.6335572,95.7194217 L48.684812,96.5983062 L53.3932584,98.6129379 L52.5117396,102.873744 C51.520521,103.049772 50.3623731,103.168799 49.0716279,103.23118 Z" id="Combined-Shape" fill="url(#linearGradient-4)"></path>
                    <path d="M93.8426966,102.715149 L101.955373,101.891558 L106.444691,103.282759 L106.444691,101.913817 C106.466977,100.307747 105.520942,98.8388317 104.029119,98.1631391 L101.636335,97.0501784 L103.915176,96.4269203 L105.795221,97.2059929 L106.786517,96.6717717 L103.858205,95.2137931 L99.3005222,95.9706064 L93.8768793,98.6751011 L93.8426966,102.715149 Z" id="Shape" fill="#F4ACC8"></path>
                    <polygon id="Shape" fill="#0064F0" points="127.320715 219.475862 132.337531 220.207067 137.992851 227.153518 144 229.701312 143.100882 232.386207 124.58427 227.587672"></polygon>
                    <polygon id="Shape" fill="#F4ACC8" points="37.2134831 20.7470219 36.4234941 37.1172414 29.1235955 31.2499216 30.1135818 16.137931"></polygon>
                    <path d="M45.9116484,23.7865033 C45.0596501,25.8729485 41.851344,26.9556444 37.9241644,24.0346211 L32.3595506,17.7414511 L32.7855497,7.82801655 L40.1739724,1.6137931 L53.3932584,6.59870556 L45.9116484,23.7865033 Z" id="Shape" fill="#F7B6AF"></path>
                    <path d="M39.7559529,10.0288284 C36.1894416,32.2275981 26.8811355,37.971589 17.5728293,37.0188462 C14.2494116,36.6778284 11.9005298,31.8670413 11.4007677,28.6395512 C10.9649882,25.8627126 12.4614604,23.1386982 15.074019,21.9531662 L21.5709259,19.0179771 C26.3204074,16.6820342 31.2564039,14.1824578 32.51155,8.0477896 L32.3595506,8.00622416 C32.4431118,7.01467232 32.5952502,6.10352282 32.8109885,5.27949098 C32.8140358,5.14305555 32.8155725,5.00514565 32.8155725,4.86573773 L32.9269345,4.86538239 C34.1671592,0.714939163 37.1215226,-1.02445241 41.0794351,0.605956764 L51.9820749,4.95346538 L55.0112047,5.48799513 C55.0209555,8.58152655 52.7515191,11.1380882 49.8550022,11.2965517 L41.0905716,10.3937904 L39.7559529,10.0288284 Z" id="Combined-Shape" fill="url(#linearGradient-5)"></path>
                    <path d="M132.674157,221.089655 L123.663636,123.004792 C122.199183,117.189796 117.01593,113.07607 111.014249,112.965517 L0,112.965517 C0,126.685859 8.84879447,143.671849 28.8798775,143.671849 C44.6482906,143.671849 83.0469758,141.098564 106.277949,139.436891 C109.246801,162.95418 118.41905,195.068318 128.226656,220.42037 L132.674157,221.089655 Z" id="Shape" fill="url(#linearGradient-6)"></path>
                    <path d="M121.688562,112.965471 C122.454123,112.965471 123.074733,112.349644 123.074733,111.589982 L131.028173,78.837558 C131.102822,78.5100886 131.026508,78.1666437 130.82,77.9006882 C130.613492,77.6347328 130.298278,77.4739404 129.96014,77.462069 L82.4667379,77.462069 C81.6577059,77.5041769 80.9687931,78.0601747 80.7624293,78.837558 L72.8089888,111.589982 C72.8089763,111.956746 72.9565776,112.308327 73.2189977,112.566607 C73.4814178,112.824888 73.8369218,112.968477 74.2065219,112.965471 L121.688562,112.965471 Z" id="Shape" fill="#314D91"></path>
                    <path d="M136.399899,77.462069 L87.5250329,77.462069 C86.6922688,77.5041769 85.9831477,78.0601755 85.7707304,78.8375598 L77.5839857,110.710614 L64.7191011,110.710614 L64.7191011,111.590026 C64.7191011,112.349689 65.3579159,112.965517 66.1459338,112.965517 L127.885684,112.965517 C128.673702,112.965517 129.312517,112.349689 129.312517,111.590026 L137.499262,78.8375598 C137.5761,78.51009 137.497548,78.1666446 137.284982,77.9006888 C137.072417,77.634733 136.747956,77.4739404 136.399899,77.462069 Z" id="Shape" fill="#211F55"></path>
                    <path d="M77.6629213,111.351724 L77.6629213,112.610483 C77.6629484,113.691565 77.013447,114.570449 76.207944,114.57931 L50.0063278,114.57931 C49.196125,114.57931 48.5393258,113.697836 48.5393258,112.610483 L48.5393258,111.351724 L77.6629213,111.351724 Z" id="Shape" fill="#314D91"></path>
                    <path d="M85.7852001,112.966872 L0,112.966872 C0,128.453533 3.99359199,143.928558 24.5303722,143.928558 C38.4783181,143.928558 60.4608497,141.997089 76.3522647,140.437951 C74.81171,164.19735 78.272033,195.62445 83.4625176,222.874457 L87.8590239,224.317241 L97.0786517,123.089633 C96.6342196,117.313366 91.6842801,112.876542 85.7852001,112.966872 Z" id="Shape" fill="url(#linearGradient-7)"></path>
                    <polygon id="Shape" fill="#0064F0" points="82.3444733 221.089655 87.201679 222.456763 92.7658633 228.807197 98.6966292 231.442186 97.6885299 234 79.2808989 228.840272"></polygon>
                    <path d="M51.7752809,102.715149 L59.887957,101.891558 L64.3772749,103.282759 L64.3772749,101.913817 C64.3995611,100.307747 63.4535265,98.8388317 61.9617028,98.1631391 L59.5689191,97.0501784 L61.8477607,96.4269203 L63.7164108,97.2059929 L64.7191011,96.6717717 L61.7907897,95.2137931 L57.2331065,95.9706064 L51.7752809,98.7084899 L51.7752809,102.715149 Z" id="Shape" fill="#F4ACC8"></path>
                </g>
                <g id="Silla" transform="translate(327.000000, 338.000000)" fill-rule="nonzero">
                    <path d="M94.4933556,0 L72.5224307,0 C59.9490642,0 54.0932991,10.873883 51.5550139,23.8240091 L38.4503784,92.6567443 L5.92490927,92.6567443 C4.4086415,92.7533388 3.22857143,94.0034175 3.22857143,95.5130448 C3.22857143,97.022672 4.4086415,98.2727507 5.92490927,98.3693452 L75.3204474,98.3693452 C76.0833579,98.3724646 76.8160985,98.0735294 77.3566688,97.5386306 C77.8972392,97.0037318 78.2011125,96.2769291 78.201106,95.5189098 L96.2524463,95.5189098 L111.257844,23.8240091 C112.29677,9.70086435 107.031304,0 94.4933556,0 Z" id="Shape" fill="#BFD5F7"></path>
                    <path d="M96.2071819,0 L94.1063646,0 C106.605641,0 111.487987,9.70028624 110.020936,23.8225893 L93.5899626,92.6512225 L64.3897757,92.6512225 C63.3250672,92.5829968 62.3106851,93.1119601 61.7576405,94.023785 C61.204596,94.9356098 61.204596,96.0790957 61.7576405,96.9909205 C62.3106851,97.9027454 63.3250672,98.4317087 64.3897757,98.363483 L95.092223,98.363483 C95.8506379,98.3666022 96.5790607,98.0676848 97.1164456,97.5328179 C97.6538306,96.997951 97.9559133,96.2711916 97.9559069,95.5132175 L112.872883,23.8225893 C113.905687,9.70028624 108.671249,0 96.2071819,0 Z" id="Shape" fill="#8DAFE3"></path>
                    <path d="M20.8995691,179 L21.7936062,179 L34.1011303,96.7567568 L29.0271793,96.7567568 L20.8995691,179 Z M0,179 L0.812761021,179 L13.1202851,96.7567568 L8.12761021,96.7567568 L0,179 Z M91.9232715,96.7567568 L86.9770401,96.7567568 L99.2729533,179 L100.085714,179 L91.9232715,96.7567568 Z M66.0310275,96.7567568 L78.3385515,179 L79.2325887,179 L71.1049785,96.7567568 L66.0310275,96.7567568 Z" id="Shape" fill="#8DAFE3"></path>
                </g>
                <g id="Hombre" transform="translate(281.000000, 286.000000)" fill-rule="nonzero">
                    <path d="M137.980917,37.1627294 C139.053281,37.2065068 140.115057,37.4133892 141.130863,37.8121669 C141.203896,37.997786 141.273355,38.191812 141.339336,38.3939275 C142.246329,38.7663371 143.127246,39.1632303 143.978826,39.5850577 C144.183941,46.1191523 142.872948,55.4706491 141.168727,64.5538542 C139.406194,79.1170781 136.345072,93.6083081 136.338524,93.6016115 C135.80247,94.0748941 135.238302,94.5265507 134.649052,94.9574756 L135.780767,114.692308 L93.2863452,114.692308 L95.6210599,94.7781595 C83.5897451,99.0242526 66.0969713,96.0648286 57.0969868,93.6173072 L56.6292135,89.6416499 L87.326835,85.528901 C85.2774129,68.380482 83.9599735,45.9985002 85.7590424,39.7725795 C85.7608631,39.7094104 85.7630862,39.6469007 85.7657166,39.5850577 C85.7852938,39.5758563 85.8048917,39.5666652 85.8245104,39.5574843 C85.8957945,39.3353205 85.9716316,39.1369143 86.0521528,38.9634439 L87.1947068,38.9470721 C100.566074,33.2755309 122.229605,32.0270736 137.980917,37.1627294 Z" id="Combined-Shape" fill="url(#linearGradient-8)"></path>
                    <polygon id="Shape" fill="#F4ACC8" points="56.1648553 89.8239571 48.4969912 88.8461538 43.1628249 92.7305779 42.0674157 96.9230769 45.8775345 94.7129736 56.6292135 94.485266"></polygon>
                    <polygon id="Shape" fill="#F7B6AF" points="108.547547 25.6050369 106.786517 42 118.11236 36.1179361 116.949849 21"></polygon>
                    <path d="M101.956424,24.9669713 C102.495404,27.2066623 105.62149,28.6400646 110.13545,26.1540075 L116.872705,20.4539937 L118.11236,10.3753838 L111.536799,3.23076923 L97.0786517,6.71348887 L101.956424,24.9669713 Z" id="Shape" fill="#F7B6AF"></path>
                    <path d="M112.681803,14.8201143 C111.306774,18.4429162 110.053724,16.5565607 108.900474,10.7600776 L99.8962515,10.3478278 C97.3014388,9.89810063 95.8044314,6.60010164 95.4606742,3.31459507 L98.5988451,3.21465571 L110.231147,0.278936914 C115.398594,-1.09522933 118.38152,2.70246647 118.093208,9.58579012 L117.472227,17.9806966 C117.305893,20.2418247 117.416782,21.4161123 115.709085,22.6153846 L113.069916,18.1555905 L112.681803,14.8201143 Z" id="Shape" fill="#37384F"></path>
                    <path d="M110.09477,13.3582344 C109.831853,15.5826221 110.307608,17.5517522 111.171478,17.7523118 C112.035349,17.9528713 112.924259,16.3483949 113.187176,14.1057745 C113.450093,11.8631541 112.961818,9.9304893 112.110468,9.71169706 C111.259117,9.49290482 110.357687,11.1520793 110.09477,13.3582344 Z" id="Shape" fill="#F7B6AF"></path>
                    <path d="M97.0786517,104.65921 L89.0737175,106.842578 L85.3550723,109.846154 L84.8105977,108.529201 C84.1818692,106.984423 84.5221399,105.215432 85.6794401,104.012286 L87.5329704,102.083066 L85.1465501,102.325662 L83.6753104,103.758137 L82.5168539,103.61951 L84.7410903,101.124232 L89.3749162,100.153846 L95.9665335,100.743009 L97.0786517,104.65921 Z" id="Shape" fill="#F4ACC8"></path>
                    <path d="M81.1308242,111.461538 L33.6536237,111.461538 C32.8881406,111.461538 32.267594,110.843943 32.267594,110.0821 L24.3149641,77.2921671 C24.2153513,76.9626861 24.2821608,76.6055969 24.4942544,76.3338812 C24.7063479,76.0621655 25.0374826,75.9094434 25.3828886,75.9240354 L72.8600891,75.9240354 C73.6671992,75.9612451 74.3568995,76.5149575 74.564224,77.2921671 L82.5168539,110.0821 C82.5168539,110.44795 82.3708262,110.798815 82.1108952,111.05751 C81.8509642,111.316205 81.4984221,111.461538 81.1308242,111.461538 Z" id="Shape" fill="#8CADFF"></path>
                    <path d="M23.8286327,75.9257833 L72.6702547,75.9257833 C73.5005599,75.962932 74.2100811,76.5157379 74.4233639,77.2916748 L82.6045401,109.203867 L95.4606742,109.203867 L95.4606742,110.084359 C95.4606742,110.449609 95.3104498,110.799901 95.0430488,111.058172 C94.7756478,111.316443 94.4129742,111.461538 94.034812,111.461538 L32.3253685,111.461538 C31.5378866,111.461538 30.8995064,110.844954 30.8995064,110.084359 L22.7183302,77.3481166 C22.590569,77.010144 22.6488288,76.6326642 22.8730919,76.3453759 C23.097355,76.0580876 23.4570665,75.9001328 23.8286327,75.9257833 Z" id="Shape" fill="#211F55"></path>
                    <path d="M82.5168539,109.846154 L82.5168539,111.106154 C82.5168269,112.188302 83.1663283,113.068053 83.9718312,113.076923 L110.173448,113.076923 C110.98365,113.076923 111.640449,112.19458 111.640449,111.106154 L111.640449,109.846154 L82.5168539,109.846154 Z" id="Shape" fill="#8CADFF"></path>
                    <path d="M33.1858002,113.076923 C27.131558,113.196228 21.9046861,117.336289 20.419585,123.18869 L11.3258427,221.307692 L21.6554013,221.307692 C31.6002246,195.737708 38.9918049,167.692085 41.5567066,144.004981 L106.763502,144.004981 C126.967932,144.004981 133.403504,128.546763 135.910112,113.076923 L33.1858002,113.076923 Z" id="Shape" fill="url(#linearGradient-9)"></path>
                    <path d="M62.9277929,113.078657 C57.101737,112.976357 52.2082952,117.413075 51.7752809,123.190261 L60.8703064,221.307692 L71.0408363,221.307692 C76.1962428,194.087718 79.8436052,167.646453 78.0549948,144.00622 L111.722956,144.00622 C131.970493,144.00622 135.910112,128.548249 135.910112,113.078657 L62.9277929,113.078657 Z" id="Shape" fill="url(#linearGradient-10)"></path>
                    <polygon id="Shape" fill="#37384F" points="69.5730337 222.923077 64.1873327 222.923077 55.7738496 227.412615 48.7402848 228.325382 48.5393258 231 69.5730337 231"></polygon>
                    <polygon id="Shape" fill="#37384F" points="21.0337079 222.923077 15.6514351 222.923077 7.24330742 227.412615 0.214219813 228.325382 0 231 20.3910484 231"></polygon>
                </g>
                <g id="Chat-verde" transform="translate(378.000000, 237.000000)">
                    <path d="M12.5152457,-0.000482142857 L51.8094171,-0.000482142857 C54.18876,-0.000482142857 56.1169886,1.902375 56.1169886,4.25041071 L56.1169886,26.6154107 C56.1169886,28.9618393 54.18876,30.8646964 51.8094171,30.8646964 L47.3455029,30.8646964 L41.7823029,38.206125 C40.5934457,39.7763036 38.2075886,39.7763036 37.02036,38.206125 L31.45716,30.8646964 L12.5152457,30.8646964 C10.1359029,30.8646964 8.20604571,28.9618393 8.20604571,26.6154107 L8.20604571,4.25041071 C8.20604571,1.902375 10.1359029,-0.000482142857 12.5152457,-0.000482142857" id="Fill-1" fill-opacity="0.504895" fill="#48BECB"></path>
                    <path d="M4.3092,4.82142857 L43.6033714,4.82142857 C45.9827143,4.82142857 47.9109429,6.72428571 47.9109429,9.07232143 L47.9109429,31.4373214 C47.9109429,33.78375 45.9827143,35.6866071 43.6033714,35.6866071 L39.1394571,35.6866071 L33.5762571,43.0280357 C32.3874,44.5982143 30.0015429,44.5982143 28.8143143,43.0280357 L23.2511143,35.6866071 L4.3092,35.6866071 C1.92985714,35.6866071 0,33.78375 0,31.4373214 L0,9.07232143 C0,6.72428571 1.92985714,4.82142857 4.3092,4.82142857" id="Fill-1" fill="#48BECB"></path>
                    <ellipse id="Oval-7" fill="#FFFFFF" fill-rule="nonzero" cx="8.14285714" cy="20.8928571" rx="3.25714286" ry="3.21428571"></ellipse>
                    <ellipse id="Oval-7-Copy" fill="#FFFFFF" fill-rule="nonzero" cx="22.8" cy="20.8928571" rx="3.25714286" ry="3.21428571"></ellipse>
                    <ellipse id="Oval-7-Copy-2" fill="#FFFFFF" fill-rule="nonzero" cx="37.4571429" cy="20.8928571" rx="3.25714286" ry="3.21428571"></ellipse>
                </g>
                <g id="Chat-rosa" transform="translate(24.000000, 0.000000)">
                    <g id="Group-3" transform="translate(9.714286, 0.000000)">
                        <mask id="mask-12" fill="white">
                            <use xlink:href="#path-11"></use>
                        </mask>
                        <g id="Clip-2"></g>
                        <path d="M52.4290929,0.580241667 L5.17880714,0.580241667 C2.31795,0.580241667 -0.000121428571,2.88695 -0.000121428571,5.73378333 L-0.000121428571,32.8499917 C-0.000121428571,35.696825 2.31795,38.0047417 5.17880714,38.0047417 L10.5483786,38.0047417 L17.2378786,46.9065333 C18.6658786,48.80845 21.5340214,48.80845 22.9632357,46.9065333 L29.6527357,38.0047417 L52.4290929,38.0047417 C55.2887357,38.0047417 57.6092357,35.696825 57.6092357,32.8499917 L57.6092357,5.73378333 C57.6092357,2.88695 55.2887357,0.580241667 52.4290929,0.580241667" id="Fill-1" fill-opacity="0.33483356" fill="#F198CE" mask="url(#mask-12)"></path>
                    </g>
                    <g id="Group-6" transform="translate(0.000000, 9.666667)">
                        <mask id="mask-14" fill="white">
                            <use xlink:href="#path-13"></use>
                        </mask>
                        <g id="Clip-5"></g>
                        <path d="M52.4290929,0.580241667 L5.17880714,0.580241667 C2.31795,0.580241667 -0.000121428571,2.88695 -0.000121428571,5.73378333 L-0.000121428571,32.8499917 C-0.000121428571,35.696825 2.31795,38.0047417 5.17880714,38.0047417 L10.5483786,38.0047417 L17.2378786,46.9065333 C18.6658786,48.80845 21.5340214,48.80845 22.9632357,46.9065333 L29.6527357,38.0047417 L52.4290929,38.0047417 C55.2887357,38.0047417 57.6092357,35.696825 57.6092357,32.8499917 L57.6092357,5.73378333 C57.6092357,2.88695 55.2887357,0.580241667 52.4290929,0.580241667" id="Fill-4" fill="#F198CE" mask="url(#mask-14)"></path>
                    </g>
                    <path d="M46.7199491,19.3333333 L8.32766998,19.3333333 C7.3056533,19.3333333 6.47619048,18.6115556 6.47619048,17.7222222 C6.47619048,16.8328889 7.3056533,16.1111111 8.32766998,16.1111111 L46.7199491,16.1111111 C47.7419658,16.1111111 48.5714286,16.8328889 48.5714286,17.7222222 C48.5714286,18.6115556 47.7419658,19.3333333 46.7199491,19.3333333" id="Fill-7" fill="#D380B2"></path>
                    <path d="M46.7199491,27.3888889 L8.32766998,27.3888889 C7.3056533,27.3888889 6.47619048,26.6671111 6.47619048,25.7777778 C6.47619048,24.8884444 7.3056533,24.1666667 8.32766998,24.1666667 L46.7199491,24.1666667 C47.7419658,24.1666667 48.5714286,24.8884444 48.5714286,25.7777778 C48.5714286,26.6671111 47.7419658,27.3888889 46.7199491,27.3888889" id="Fill-9" fill="#D380B2"></path>
                    <path d="M28.9231923,35.4444444 L8.31490294,35.4444444 C7.29870785,35.4444444 6.47619048,34.7226667 6.47619048,33.8333333 C6.47619048,32.944 7.29870785,32.2222222 8.31490294,32.2222222 L28.9231923,32.2222222 C29.9381616,32.2222222 30.7619048,32.944 30.7619048,33.8333333 C30.7619048,34.7226667 29.9381616,35.4444444 28.9231923,35.4444444" id="Fill-11" fill="#D380B2"></path>
                </g>
                <g id="Chatting" transform="translate(210.000000, 44.000000)" fill-rule="nonzero">
                    <rect id="Rectangle-7" fill-opacity="0.438264266" fill="#F198CE" x="1.61728395" y="58.1052632" width="124.530864" height="30.6666667" rx="3"></rect>
                    <path d="M23.9560185,95.9183364 L14.3209877,95.9183364 C12.6641334,95.9183364 11.3209877,94.5751907 11.3209877,92.9183364 L11.3209877,70.7894737 C11.3209877,69.1326194 12.6641334,67.7894737 14.3209877,67.7894737 L128,67.7894737 C129.656854,67.7894737 131,69.1326194 131,70.7894737 L131,92.9183364 C131,94.5751907 129.656854,95.9183364 128,95.9183364 L42.3526235,95.9183364 L34.7562859,106.081451 C34.6415109,106.235008 34.5052538,106.371265 34.3516967,106.48604 C33.4669559,107.147332 32.2136485,106.966191 31.5523561,106.081451 L23.9560185,95.9183364 Z" id="Combined-Shape-Copy" fill="#F198CE"></path>
                    <rect id="Rectangle-3" fill-opacity="0.661458333" fill="#49BECC" x="8.08641975" y="137.192982" width="121.296296" height="27.4385965" rx="3"></rect>
                    <rect id="Rectangle-3-Copy" fill-opacity="0.661458333" fill="#49BECC" x="8.08641975" y="0" width="121.296296" height="27.4385965" rx="3"></rect>
                    <rect id="Rectangle-5-Copy-2" fill="#D380B2" x="19.4074074" y="74.245614" width="101.888889" height="3.22807018" rx="1"></rect>
                    <rect id="Rectangle-5-Copy-3" fill="#D380B2" x="19.4074074" y="83.9298246" width="61.4567901" height="3.22807018" rx="1"></rect>
                    <g id="Chats" transform="translate(0.000000, 12.912281)">
                        <path d="M97.8588099,25.8245614 L91.3612241,34.5176593 C91.2464491,34.6712164 91.110192,34.8074735 90.956635,34.9222484 C90.0718942,35.5835408 88.8185867,35.4024001 88.1572944,34.5176593 L81.6597086,25.8245614 L3,25.8245614 C1.34314575,25.8245614 2.02906125e-16,24.4814157 0,22.8245614 L0,3 C-2.02906125e-16,1.34314575 1.34314575,3.04359188e-16 3,0 L115.061728,0 C116.718583,-7.66227013e-15 118.061728,1.34314575 118.061728,3 L118.061728,22.8245614 C118.061728,24.4814157 116.718583,25.8245614 115.061728,25.8245614 L97.8588099,25.8245614 Z" id="Combined-Shape" fill="#49BECC"></path>
                        <path d="M97.8588099,161.403509 L91.3612241,170.096607 C91.2464491,170.250164 91.110192,170.386421 90.956635,170.501196 C90.0718942,171.162488 88.8185867,170.981347 88.1572944,170.096607 L81.6597086,161.403509 L3,161.403509 C1.34314575,161.403509 2.41027941e-15,160.060363 0,158.403509 L0,138.578947 C-2.02906125e-16,136.922093 1.34314575,135.578947 3,135.578947 L115.061728,135.578947 C116.718583,135.578947 118.061728,136.922093 118.061728,138.578947 L118.061728,158.403509 C118.061728,160.060363 116.718583,161.403509 115.061728,161.403509 L97.8588099,161.403509 Z" id="Combined-Shape-Copy-3" fill="#49BECC"></path>
                        <ellipse id="Oval-3" fill="#FFFFFF" cx="15.3641975" cy="12.1052632" rx="4.04320988" ry="4.03508772"></ellipse>
                        <ellipse id="Oval-3-Copy-5" fill="#FFFFFF" cx="15.3641975" cy="147.684211" rx="4.04320988" ry="4.03508772"></ellipse>
                        <ellipse id="Oval-3-Copy" fill="#FFFFFF" cx="36.3888889" cy="12.1052632" rx="4.04320988" ry="4.03508772"></ellipse>
                        <ellipse id="Oval-3-Copy-6" fill="#FFFFFF" cx="36.3888889" cy="147.684211" rx="4.04320988" ry="4.03508772"></ellipse>
                        <ellipse id="Oval-3-Copy-2" fill="#FFFFFF" cx="57.4135802" cy="12.1052632" rx="4.04320988" ry="4.03508772"></ellipse>
                        <ellipse id="Oval-3-Copy-7" fill="#FFFFFF" cx="57.4135802" cy="147.684211" rx="4.04320988" ry="4.03508772"></ellipse>
                        <ellipse id="Oval-3-Copy-3" fill="#FFFFFF" cx="78.4382716" cy="12.1052632" rx="4.04320988" ry="4.03508772"></ellipse>
                        <ellipse id="Oval-3-Copy-8" fill="#FFFFFF" cx="78.4382716" cy="147.684211" rx="4.04320988" ry="4.03508772"></ellipse>
                        <ellipse id="Oval-3-Copy-4" fill="#FFFFFF" cx="99.462963" cy="12.1052632" rx="4.04320988" ry="4.03508772"></ellipse>
                        <ellipse id="Oval-3-Copy-9" fill="#FFFFFF" cx="99.462963" cy="147.684211" rx="4.04320988" ry="4.03508772"></ellipse>
                    </g>
                </g>
            </g>
        </g>
    </g>
</svg>