<svg xmlns="http://www.w3.org/2000/svg" xmlns:xlink="http://www.w3.org/1999/xlink" viewBox="0 0 698 584"><defs><style>.cls-1{fill:none;}.cls-2{isolation:isolate;}.cls-3{clip-path:url(#clip-path);}.cls-4{fill:#d94444;}.cls-4,.cls-44,.cls-47{opacity:0.3;}.cls-4,.cls-51,.cls-52,.cls-53,.cls-56,.cls-57{mix-blend-mode:hard-light;}.cls-5{clip-path:url(#clip-path-2);}.cls-6{clip-path:url(#clip-path-3);}.cls-7{fill:#fff7f9;}.cls-8{fill:#ffe8e8;}.cls-14,.cls-51,.cls-9{fill:#fff;}.cls-9{opacity:0.25;}.cls-10{fill:#160e33;}.cls-11,.cls-13,.cls-42,.cls-43{stroke-miterlimit:10;stroke-width:1.02px;}.cls-11,.cls-13,.cls-15,.cls-42,.cls-43{opacity:0.19;}.cls-11,.cls-13,.cls-41,.cls-42,.cls-43{mix-blend-mode:screen;}.cls-11{fill:url(#Fading_Sky);stroke:url(#Fading_Sky-2);}.cls-12,.cls-41{fill:#2b1b66;}.cls-13{fill:url(#Fading_Sky-3);stroke:url(#Fading_Sky-4);}.cls-15{mix-blend-mode:multiply;}.cls-16{fill:url(#Fading_Sky-5);}.cls-17{fill:url(#Fading_Sky-6);}.cls-18{fill:url(#Fading_Sky-7);}.cls-19{fill:url(#Fading_Sky-8);}.cls-20{fill:url(#Fading_Sky-9);}.cls-21{fill:url(#Fading_Sky-10);}.cls-22{fill:url(#Fading_Sky-11);}.cls-23{fill:url(#Fading_Sky-12);}.cls-24{fill:url(#Fading_Sky-13);}.cls-25{fill:url(#Fading_Sky-14);}.cls-26{fill:url(#Fading_Sky-15);}.cls-27{fill:url(#Fading_Sky-16);}.cls-28{fill:url(#Fading_Sky-17);}.cls-29{fill:url(#Fading_Sky-18);}.cls-30{fill:#f7b6af;}.cls-31{fill:url(#linear-gradient);}.cls-32{fill:url(#linear-gradient-2);}.cls-33{fill:url(#linear-gradient-3);}.cls-34{fill:url(#linear-gradient-4);}.cls-35{fill:url(#linear-gradient-5);}.cls-36{fill:#ff3c87;}.cls-37{fill:url(#linear-gradient-6);}.cls-38{fill:#414042;}.cls-39{fill:url(#linear-gradient-7);}.cls-40{fill:url(#linear-gradient-8);}.cls-41{opacity:0.52;}.cls-42{fill:url(#Fading_Sky-19);stroke:url(#Fading_Sky-20);}.cls-43{fill:url(#Fading_Sky-21);stroke:url(#Fading_Sky-22);}.cls-44,.cls-45{fill:#cc4776;}.cls-46{fill:#b13062;}.cls-47,.cls-48{fill:#48becb;}.cls-49{fill:#f8f8fb;}.cls-50{opacity:0.4;}.cls-52,.cls-53,.cls-56,.cls-57{opacity:0.33;}.cls-52{fill:url(#Gradient_bez_nazwy_6);}.cls-53{fill:url(#Gradient_bez_nazwy_6-2);}.cls-54{fill:#dca245;mix-blend-mode:overlay;}.cls-55{opacity:0.8;}.cls-56{fill:url(#Gradient_bez_nazwy_6-3);}.cls-57{fill:url(#Gradient_bez_nazwy_6-4);}</style><clipPath id="clip-path"><rect class="cls-1" x="-1453" y="-63" width="1280" height="700"/></clipPath><clipPath id="clip-path-2"><polyline class="cls-1" points="-1453 -238 -1453 -938 -173 -938 -173 -238"/></clipPath><clipPath id="clip-path-3"><rect class="cls-1" x="3" y="-938" width="1280" height="700"/></clipPath><linearGradient id="Fading_Sky" x1="375.43" y1="124.07" x2="629.34" y2="124.07" gradientUnits="userSpaceOnUse"><stop offset="0" stop-color="#2483c5"/><stop offset="1" stop-color="#2483c5" stop-opacity="0"/></linearGradient><linearGradient id="Fading_Sky-2" x1="374.35" y1="124.46" x2="629.85" y2="124.46" xlink:href="#Fading_Sky"/><linearGradient id="Fading_Sky-3" x1="375.38" y1="153.69" x2="623.16" y2="153.69" xlink:href="#Fading_Sky"/><linearGradient id="Fading_Sky-4" x1="374.87" y1="153.69" x2="623.67" y2="153.69" xlink:href="#Fading_Sky"/><linearGradient id="Fading_Sky-5" x1="389.58" y1="112.2" x2="528.62" y2="112.2" xlink:href="#Fading_Sky"/><linearGradient id="Fading_Sky-6" x1="464.67" y1="172.52" x2="491.8" y2="172.52" xlink:href="#Fading_Sky"/><linearGradient id="Fading_Sky-7" x1="492.59" y1="159.98" x2="519.71" y2="159.98" xlink:href="#Fading_Sky"/><linearGradient id="Fading_Sky-8" x1="520.5" y1="219.33" x2="604.41" y2="219.33" xlink:href="#Fading_Sky"/><linearGradient id="Fading_Sky-9" x1="520.5" y1="147.45" x2="547.63" y2="147.45" xlink:href="#Fading_Sky"/><linearGradient id="Fading_Sky-10" x1="478.24" y1="186.74" x2="505.36" y2="186.74" xlink:href="#Fading_Sky"/><linearGradient id="Fading_Sky-11" x1="506.15" y1="174.2" x2="533.28" y2="174.2" xlink:href="#Fading_Sky"/><linearGradient id="Fading_Sky-12" x1="534.07" y1="161.66" x2="561.19" y2="161.66" xlink:href="#Fading_Sky"/><linearGradient id="Fading_Sky-13" x1="491.8" y1="200.95" x2="518.92" y2="200.95" xlink:href="#Fading_Sky"/><linearGradient id="Fading_Sky-14" x1="519.72" y1="188.42" x2="546.84" y2="188.42" xlink:href="#Fading_Sky"/><linearGradient id="Fading_Sky-15" x1="547.63" y1="175.88" x2="574.76" y2="175.88" xlink:href="#Fading_Sky"/><linearGradient id="Fading_Sky-16" x1="505.36" y1="215.17" x2="532.48" y2="215.17" xlink:href="#Fading_Sky"/><linearGradient id="Fading_Sky-17" x1="533.28" y1="202.63" x2="560.4" y2="202.63" xlink:href="#Fading_Sky"/><linearGradient id="Fading_Sky-18" x1="561.19" y1="190.09" x2="588.32" y2="190.09" xlink:href="#Fading_Sky"/><linearGradient id="linear-gradient" x1="283.73" y1="268.05" x2="333.51" y2="268.05" gradientUnits="userSpaceOnUse"><stop offset="0" stop-color="#aec097"/><stop offset="1" stop-color="#48becb"/></linearGradient><linearGradient id="linear-gradient-2" x1="261.05" y1="299.51" x2="344.77" y2="299.51" xlink:href="#linear-gradient"/><linearGradient id="linear-gradient-3" x1="241.63" y1="288.43" x2="298.56" y2="288.43" gradientUnits="userSpaceOnUse"><stop offset="0" stop-color="#3f0d84"/><stop offset="1" stop-color="#5b5d82"/></linearGradient><linearGradient id="linear-gradient-4" x1="165.15" y1="362.21" x2="186.05" y2="362.21" gradientUnits="userSpaceOnUse"><stop offset="0" stop-color="#4f2d9b"/><stop offset="0.37" stop-color="#4c2c99"/><stop offset="0.62" stop-color="#432795"/><stop offset="0.83" stop-color="#34208c"/><stop offset="1" stop-color="#221782"/></linearGradient><linearGradient id="linear-gradient-5" x1="180.97" y1="405.9" x2="198.44" y2="405.9" xlink:href="#linear-gradient-4"/><linearGradient id="linear-gradient-6" x1="186.05" y1="371.5" x2="285.47" y2="371.5" gradientUnits="userSpaceOnUse"><stop offset="0" stop-color="#ff3c87"/><stop offset="0.37" stop-color="#fc3a84"/><stop offset="0.62" stop-color="#f4327b"/><stop offset="0.83" stop-color="#e5246c"/><stop offset="1" stop-color="#d3145a"/></linearGradient><linearGradient id="linear-gradient-7" x1="438.89" y1="153.51" x2="511.2" y2="153.51" gradientUnits="userSpaceOnUse"><stop offset="0" stop-color="#e2437b"/><stop offset="0.16" stop-color="#e44872"/><stop offset="0.42" stop-color="#eb565b"/><stop offset="0.75" stop-color="#f56c35"/><stop offset="1" stop-color="#ff8012"/></linearGradient><linearGradient id="linear-gradient-8" x1="352.09" y1="205.76" x2="452.26" y2="205.76" gradientUnits="userSpaceOnUse"><stop offset="0" stop-color="#ffd813"/><stop offset="1" stop-color="#ff8012"/></linearGradient><linearGradient id="Fading_Sky-19" x1="27.5" y1="448.15" x2="275.27" y2="448.15" xlink:href="#Fading_Sky"/><linearGradient id="Fading_Sky-20" x1="276.08" y1="509.52" x2="26.24" y2="387.67" xlink:href="#Fading_Sky"/><linearGradient id="Fading_Sky-21" x1="27.5" y1="427.32" x2="144.51" y2="427.32" xlink:href="#Fading_Sky"/><linearGradient id="Fading_Sky-22" x1="26.99" y1="427.59" x2="145.02" y2="427.59" xlink:href="#Fading_Sky"/><linearGradient id="Gradient_bez_nazwy_6" x1="658.46" y1="80.46" x2="658.46" y2="114.47" gradientUnits="userSpaceOnUse"><stop offset="0" stop-color="#4f2280"/><stop offset="1" stop-color="#d3145a"/></linearGradient><linearGradient id="Gradient_bez_nazwy_6-2" x1="658.46" y1="80.46" x2="658.46" y2="114.47" xlink:href="#Gradient_bez_nazwy_6"/><linearGradient id="Gradient_bez_nazwy_6-3" x1="126.62" y1="88.37" x2="126.62" y2="140.43" xlink:href="#Gradient_bez_nazwy_6"/><linearGradient id="Gradient_bez_nazwy_6-4" x1="126.63" y1="88.36" x2="126.63" y2="140.43" xlink:href="#Gradient_bez_nazwy_6"/></defs><title>personas_home</title><g class="cls-2"><g id="back"><g class="cls-3"><path class="cls-4" d="M-151.52,376.86c-100.12,0-130.42-58-137.82-108.53-4.77-32.57-26.34-47.88-47.21-62.68s-40.63-28.83-40.2-58.61c.83-57-4.51-102.55-79.64-126.1-12.87-4-26.36-7.4-40.64-11-84.13-21-179.47-44.8-200.29-217.65-3.55-29.5,7.57-56,33-78.72,51-45.53,159.36-75.48,305.13-84.33,131.1-8,273.57,2.52,381.1,28C109-322,159.41-283.3,176.19-224.23c14.44,50.83,1.7,107.68-9.53,157.83-7.39,33-13.77,61.47-11.5,83.25,6.48,62.29-38.37,80.93-77.93,97.39-17.72,7.37-34.46,14.33-44.92,24.57-29.2,28.6-27.23,51.5-22.47,106.84.71,8.28,1.49,17.27,2.23,27.12,2.52,33.44-7.26,59.52-29,77.53-16.91,14-38.27,20.11-52.63,21.19l-60.3,4.53Q-141.22,376.88-151.52,376.86Zm-119-747.66c-165.48,0-325.94,27.51-391.93,86.42-24.77,22.11-35.58,47.8-32.14,76.38C-674-37-579.66-13.43-496.37,7.36c14.32,3.57,27.84,7,40.78,11,76.78,24.07,82.36,72.53,81.54,128.71-.41,28.38,18.76,42,39.06,56.38,21.33,15.13,43.38,30.77,48.32,64.49,7.24,49.46,37,106.22,135.26,106.22,6.78,0,13.86-.27,21.3-.83l60.3-4.53c13.94-1.05,34.69-7,51.11-20.58C2.38,330.8,11.83,305.48,9.38,273c-.74-9.83-1.51-18.82-2.22-27.09-4.84-56.24-6.84-79.51,23.26-109,10.83-10.6,27.81-17.66,45.77-25.13,38.7-16.09,82.56-34.33,76.29-94.62C150.17-5.09,156.59-33.77,164-67c11.16-49.85,23.82-106.34,9.56-156.52-16.48-58-66.29-96.17-152.27-116.57C-63.72-360.25-168.11-370.8-270.57-370.8Z"/></g><g class="cls-6"><path class="cls-7" d="M503-904.23c-23.42,19.16-113.67,93-137.95,221.36-5.17,27.31-29.45,155.68,42.34,241.21,95,113.16,256.69,30.41,371.81,129.21,99,84.94-10,230.26,87.76,337.55,51,56,139.76,88.94,208.29,73.92,213.86-46.88,454.7-609.93,196.19-917.68C1083.22-1042.67,691.63-1058.58,503-904.23Z"/><path class="cls-7" d="M134.93,220.59c28.31-10.7,137.38-51.92,201.31-165.86C349.84,30.5,413.76-83.44,373-187.39,319-324.93,139.36-298,61.73-428.36-5-540.42,144.55-643.44,86.13-776.28,55.63-845.62-18-905.12-87.74-912.73-305.4-936.45-713.12-479.51-566.17-105.42-459.2,166.88-93.1,306.76,134.93,220.59Z"/><path class="cls-8" d="M851.06,26.28q-9.54,0-18.91-.57l.09-1.35-.1,1.35c-108.21-6.56-177-51.61-215.63-88.25-66.27-62.82-100.17-132.83-95.46-197.15,5.05-68.84,50.36-107.85,98.34-149.15,43.08-37.08,87.63-75.43,102.68-137.89,13.45-55.82-18-95.62-51.34-137.76-33.69-42.6-68.52-86.66-61.14-151.31,7.8-68.39,56.2-138.41,112.59-162.87,83.09-36.06,228.93,3.63,362.9,98.76,174,123.57,270.59,296.47,258.36,462.51-8.87,120.44-75,242.23-181.38,334.12C1067.11-21.26,952.31,26.28,851.06,26.28ZM793.94-1009.18c-26.59,0-50.52,4.23-70.69,13C667.68-972.09,620-903,612.27-835.5,605-771.95,639.5-728.34,672.85-686.16c33.73,42.67,65.6,83,51.84,140.06-15.26,63.31-60.14,101.94-103.54,139.31-47.54,40.92-92.44,79.58-97.41,147.3-4.65,63.49,29,132.74,94.63,195C656.69-28.17,724.91,16.5,832.31,23l-.07,1.34.08-1.34c105,6.38,227.58-41.62,328-128.34,105.86-91.43,171.63-212.54,180.45-332.28,12.16-165.09-84-337.1-257.24-460.11C983-969.12,875.81-1009.18,793.94-1009.18Z"/></g><path class="cls-9" d="M628.38,123.09a1.3,1.3,0,0,1,1.31-1.31h0a1.31,1.31,0,0,1,1.32,1.31h0a1.32,1.32,0,0,1-1.32,1.32h0A1.31,1.31,0,0,1,628.38,123.09Zm0-5.24a1.3,1.3,0,0,1,1.31-1.32h0a1.31,1.31,0,0,1,1.32,1.32h0a1.32,1.32,0,0,1-1.32,1.31h0A1.31,1.31,0,0,1,628.38,117.85Zm0-5.25a1.3,1.3,0,0,1,1.31-1.31h0A1.3,1.3,0,0,1,631,112.6h0a1.32,1.32,0,0,1-1.32,1.31h0A1.31,1.31,0,0,1,628.38,112.6Zm0-5.25a1.3,1.3,0,0,1,1.31-1.31h0a1.3,1.3,0,0,1,1.32,1.31h0a1.32,1.32,0,0,1-1.32,1.31h0A1.31,1.31,0,0,1,628.38,107.35Zm0-5.25a1.3,1.3,0,0,1,1.31-1.31h0A1.3,1.3,0,0,1,631,102.1h0a1.32,1.32,0,0,1-1.32,1.31h0A1.31,1.31,0,0,1,628.38,102.1Zm0-5.25a1.3,1.3,0,0,1,1.31-1.31h0A1.3,1.3,0,0,1,631,96.85h0a1.32,1.32,0,0,1-1.32,1.31h0A1.31,1.31,0,0,1,628.38,96.85Zm0-5.25a1.3,1.3,0,0,1,1.31-1.31h0A1.31,1.31,0,0,1,631,91.6h0a1.32,1.32,0,0,1-1.32,1.31h0A1.31,1.31,0,0,1,628.38,91.6Zm0-5.25A1.3,1.3,0,0,1,629.69,85h0A1.31,1.31,0,0,1,631,86.35h0a1.33,1.33,0,0,1-1.32,1.32h0A1.32,1.32,0,0,1,628.38,86.35Zm0-5.25a1.3,1.3,0,0,1,1.31-1.31h0A1.31,1.31,0,0,1,631,81.1h0a1.32,1.32,0,0,1-1.32,1.32h0A1.31,1.31,0,0,1,628.38,81.1Zm0-5.24a1.3,1.3,0,0,1,1.31-1.32h0A1.31,1.31,0,0,1,631,75.86h0a1.32,1.32,0,0,1-1.32,1.31h0A1.31,1.31,0,0,1,628.38,75.86Zm0-5.25a1.3,1.3,0,0,1,1.31-1.32h0A1.31,1.31,0,0,1,631,70.61h0a1.32,1.32,0,0,1-1.32,1.31h0A1.31,1.31,0,0,1,628.38,70.61Zm0-5.25a1.3,1.3,0,0,1,1.31-1.31h0A1.3,1.3,0,0,1,631,65.36h0a1.32,1.32,0,0,1-1.32,1.31h0A1.31,1.31,0,0,1,628.38,65.36Zm0-5.25a1.3,1.3,0,0,1,1.31-1.31h0A1.3,1.3,0,0,1,631,60.11h0a1.32,1.32,0,0,1-1.32,1.31h0A1.31,1.31,0,0,1,628.38,60.11Zm-1.31-3.94a1.3,1.3,0,0,1,1.31-1.31h0a1.31,1.31,0,0,1,1.31,1.31h0a1.31,1.31,0,0,1-1.31,1.31h0A1.31,1.31,0,0,1,627.07,56.17Zm-5.25,0a1.3,1.3,0,0,1,1.31-1.31h0a1.31,1.31,0,0,1,1.31,1.31h0a1.31,1.31,0,0,1-1.31,1.31h0A1.31,1.31,0,0,1,621.82,56.17Zm-5.25,0a1.3,1.3,0,0,1,1.31-1.31h0a1.31,1.31,0,0,1,1.32,1.31h0a1.32,1.32,0,0,1-1.32,1.31h0A1.31,1.31,0,0,1,616.57,56.17Zm-5.25,0a1.3,1.3,0,0,1,1.32-1.31h0A1.31,1.31,0,0,1,614,56.17h0a1.31,1.31,0,0,1-1.31,1.31h0A1.31,1.31,0,0,1,611.32,56.17Zm-5.25,0a1.3,1.3,0,0,1,1.32-1.31h0a1.31,1.31,0,0,1,1.31,1.31h0a1.31,1.31,0,0,1-1.31,1.31h0A1.31,1.31,0,0,1,606.07,56.17Zm-5.24,0a1.3,1.3,0,0,1,1.31-1.31h0a1.31,1.31,0,0,1,1.31,1.31h0a1.31,1.31,0,0,1-1.31,1.31h0A1.3,1.3,0,0,1,600.83,56.17Zm-5.25,0a1.31,1.31,0,0,1,1.31-1.31h0a1.31,1.31,0,0,1,1.31,1.31h0a1.31,1.31,0,0,1-1.31,1.31h0A1.31,1.31,0,0,1,595.58,56.17Zm-5.25,0a1.3,1.3,0,0,1,1.31-1.31h0A1.31,1.31,0,0,1,593,56.17h0a1.31,1.31,0,0,1-1.31,1.31h0A1.31,1.31,0,0,1,590.33,56.17Zm-5.25,0a1.3,1.3,0,0,1,1.31-1.31h0a1.31,1.31,0,0,1,1.31,1.31h0a1.31,1.31,0,0,1-1.31,1.31h0A1.31,1.31,0,0,1,585.08,56.17Zm-5.25,0a1.3,1.3,0,0,1,1.31-1.31h0a1.31,1.31,0,0,1,1.31,1.31h0a1.31,1.31,0,0,1-1.31,1.31h0A1.31,1.31,0,0,1,579.83,56.17Zm-5.25,0a1.3,1.3,0,0,1,1.31-1.31h0a1.31,1.31,0,0,1,1.31,1.31h0a1.31,1.31,0,0,1-1.31,1.31h0A1.31,1.31,0,0,1,574.58,56.17Zm-5.25,0a1.3,1.3,0,0,1,1.31-1.31h0A1.31,1.31,0,0,1,572,56.17h0a1.32,1.32,0,0,1-1.32,1.31h0A1.31,1.31,0,0,1,569.33,56.17Zm-5.25,0a1.3,1.3,0,0,1,1.32-1.31h0a1.31,1.31,0,0,1,1.31,1.31h0a1.31,1.31,0,0,1-1.31,1.31h0A1.31,1.31,0,0,1,564.08,56.17Zm-5.25,0a1.3,1.3,0,0,1,1.32-1.31h0a1.31,1.31,0,0,1,1.31,1.31h0a1.31,1.31,0,0,1-1.31,1.31h0A1.31,1.31,0,0,1,558.83,56.17Zm-5.24,0a1.3,1.3,0,0,1,1.31-1.31h0a1.31,1.31,0,0,1,1.31,1.31h0a1.31,1.31,0,0,1-1.31,1.31h0A1.3,1.3,0,0,1,553.59,56.17Z"/><path class="cls-10" d="M624.87,213.81c1.9-8.25,6.86-18,3.1-26.39-3-6.78-10.16-11.12-14.91-16.58-13.67-15.71-29.36-29.66-43.65-44.82-13.8-14.66-27.93-29.1-42.14-43.36Q510,65.29,493,47.54c-4.65-4.88-9.4-9.67-14.1-14.49a7.66,7.66,0,0,0-7.69-1.62c-2.45,1-4.87,2-7.3,3-11.83,4.8-23.68,9.52-35.5,14.33-14.47,5.88-33,6.76-43.25,20-4.77,6.18-7.14,16-9.72,23.15l1.85-1.47,85.08-34.32a7.66,7.66,0,0,1,7.69,1.62l151.72,155.7.24,3.71Z"/><path class="cls-11" d="M624.87,213.81c1.9-8.25,6.86-18,3.1-26.39-3-6.78-10.16-11.12-14.91-16.58-13.67-15.71-29.36-29.66-43.65-44.82-13.8-14.66-27.93-29.1-42.14-43.36Q510,65.29,493,47.54c-4.65-4.88-9.4-9.67-14.1-14.49a7.66,7.66,0,0,0-7.69-1.62c-2.45,1-4.87,2-7.3,3-11.83,4.8-23.68,9.52-35.5,14.33-14.47,5.88-33,6.76-43.25,20-4.77,6.18-7.14,16-9.72,23.15l1.85-1.47,85.08-34.32a7.66,7.66,0,0,1,7.69,1.62l151.72,155.7.24,3.71Z"/><path class="cls-12" d="M622.07,212.61c1.81,1.86,1.32,4.16-1.1,5.12l-87.41,34.39a7.68,7.68,0,0,1-7.68-1.68L376.47,94.79c-1.81-1.87-1.31-4.21,1.11-5.18l85.07-34.32a7.65,7.65,0,0,1,7.69,1.62Z"/><path class="cls-13" d="M622.07,212.61c1.81,1.86,1.32,4.16-1.1,5.12l-87.41,34.39a7.68,7.68,0,0,1-7.68-1.68L376.47,94.79c-1.81-1.87-1.31-4.21,1.11-5.18l85.07-34.32a7.65,7.65,0,0,1,7.69,1.62Z"/><path class="cls-14" d="M527.53,127.25c1.81,1.86,1.32,4.16-1.1,5.12l-69.58,27.94a7.65,7.65,0,0,1-7.69-1.68L390.66,98c-1.8-1.88-1.3-4.21,1.11-5.19l70.84-28.65a7.64,7.64,0,0,1,7.69,1.62Z"/><path class="cls-14" d="M491.51,171.84a.75.75,0,0,1-.28,1.32l-18,7.22a2,2,0,0,1-2-.43L465,173.4a.76.76,0,0,1,.29-1.33l18.3-7.41a2,2,0,0,1,2,.42Z"/><path class="cls-14" d="M519.43,159.3a.76.76,0,0,1-.28,1.33l-18,7.22a2,2,0,0,1-2-.44l-6.31-6.54a.77.77,0,0,1,.29-1.34l18.3-7.4a2,2,0,0,1,2,.42Z"/><path class="cls-14" d="M604.13,205.61a.76.76,0,0,1-.29,1.33l-74.75,33.28a2,2,0,0,1-2-.43l-6.32-6.54a.77.77,0,0,1,.29-1.34l75.09-33.47a2,2,0,0,1,2,.41Z"/><path class="cls-14" d="M547.35,146.77a.75.75,0,0,1-.29,1.32l-18,7.22a2,2,0,0,1-2-.44l-6.32-6.54a.77.77,0,0,1,.29-1.33l18.3-7.41a2,2,0,0,1,2,.42Z"/><path class="cls-14" d="M505.08,186.05a.76.76,0,0,1-.29,1.33l-18,7.22a2,2,0,0,1-2-.43l-6.31-6.55a.77.77,0,0,1,.28-1.34l18.3-7.4a2,2,0,0,1,2,.42Z"/><path class="cls-14" d="M533,173.52a.75.75,0,0,1-.28,1.32l-18,7.22a2,2,0,0,1-2-.43l-6.32-6.55a.77.77,0,0,1,.29-1.33l18.3-7.41a2,2,0,0,1,2,.42Z"/><path class="cls-14" d="M560.91,161a.75.75,0,0,1-.28,1.32l-18,7.22a2,2,0,0,1-2-.43l-6.31-6.54a.77.77,0,0,1,.28-1.34l18.31-7.4a2,2,0,0,1,2,.42Z"/><path class="cls-14" d="M518.64,200.27a.75.75,0,0,1-.28,1.32l-18,7.22a2,2,0,0,1-2-.43l-6.31-6.54a.77.77,0,0,1,.29-1.34l18.3-7.4a2,2,0,0,1,2,.41Z"/><path class="cls-14" d="M546.56,187.73a.76.76,0,0,1-.29,1.33l-18,7.22a2,2,0,0,1-2-.44L520,189.3a.77.77,0,0,1,.29-1.34l18.31-7.4a2,2,0,0,1,2,.42Z"/><path class="cls-14" d="M574.47,175.2a.75.75,0,0,1-.28,1.32l-18,7.22a2,2,0,0,1-2-.43l-6.32-6.55a.77.77,0,0,1,.29-1.33L566.5,168a2,2,0,0,1,2,.42Z"/><path class="cls-14" d="M532.2,214.49a.75.75,0,0,1-.28,1.32l-18,7.22a2,2,0,0,1-2-.43l-6.32-6.55a.78.78,0,0,1,.29-1.34l18.3-7.4a2,2,0,0,1,2,.42Z"/><path class="cls-14" d="M560.12,202a.75.75,0,0,1-.29,1.32l-18,7.22a2,2,0,0,1-2-.43l-6.31-6.54a.77.77,0,0,1,.29-1.34l18.3-7.41a2,2,0,0,1,2,.42Z"/><path class="cls-14" d="M588,189.41a.76.76,0,0,1-.29,1.33l-18,7.22a2,2,0,0,1-2-.44L561.47,191a.77.77,0,0,1,.29-1.34l18.3-7.4a2,2,0,0,1,2,.42Z"/><path class="cls-14" d="M527.53,127.25c1.81,1.86,1.32,4.16-1.1,5.12l-69.58,27.94a7.65,7.65,0,0,1-7.69-1.68L390.66,98c-1.8-1.88-1.3-4.21,1.11-5.19l70.84-28.65a7.64,7.64,0,0,1,7.69,1.62Z"/><path class="cls-14" d="M491.51,171.84a.75.75,0,0,1-.28,1.32l-18,7.22a2,2,0,0,1-2-.43L465,173.4a.76.76,0,0,1,.29-1.33l18.3-7.41a2,2,0,0,1,2,.42Z"/><path class="cls-14" d="M519.43,159.3a.76.76,0,0,1-.28,1.33l-18,7.22a2,2,0,0,1-2-.44l-6.31-6.54a.77.77,0,0,1,.29-1.34l18.3-7.4a2,2,0,0,1,2,.42Z"/><path class="cls-14" d="M604.13,205.61a.76.76,0,0,1-.29,1.33l-74.75,33.28a2,2,0,0,1-2-.43l-6.32-6.54a.77.77,0,0,1,.29-1.34l75.09-33.47a2,2,0,0,1,2,.41Z"/><path class="cls-14" d="M547.35,146.77a.75.75,0,0,1-.29,1.32l-18,7.22a2,2,0,0,1-2-.44l-6.32-6.54a.77.77,0,0,1,.29-1.33l18.3-7.41a2,2,0,0,1,2,.42Z"/><path class="cls-14" d="M505.08,186.05a.76.76,0,0,1-.29,1.33l-18,7.22a2,2,0,0,1-2-.43l-6.31-6.55a.77.77,0,0,1,.28-1.34l18.3-7.4a2,2,0,0,1,2,.42Z"/><path class="cls-14" d="M533,173.52a.75.75,0,0,1-.28,1.32l-18,7.22a2,2,0,0,1-2-.43l-6.32-6.55a.77.77,0,0,1,.29-1.33l18.3-7.41a2,2,0,0,1,2,.42Z"/><path class="cls-14" d="M560.91,161a.75.75,0,0,1-.28,1.32l-18,7.22a2,2,0,0,1-2-.43l-6.31-6.54a.77.77,0,0,1,.28-1.34l18.31-7.4a2,2,0,0,1,2,.42Z"/><path class="cls-14" d="M518.64,200.27a.75.75,0,0,1-.28,1.32l-18,7.22a2,2,0,0,1-2-.43l-6.31-6.54a.77.77,0,0,1,.29-1.34l18.3-7.4a2,2,0,0,1,2,.41Z"/><path class="cls-14" d="M546.56,187.73a.76.76,0,0,1-.29,1.33l-18,7.22a2,2,0,0,1-2-.44L520,189.3a.77.77,0,0,1,.29-1.34l18.31-7.4a2,2,0,0,1,2,.42Z"/><path class="cls-14" d="M574.47,175.2a.75.75,0,0,1-.28,1.32l-18,7.22a2,2,0,0,1-2-.43l-6.32-6.55a.77.77,0,0,1,.29-1.33L566.5,168a2,2,0,0,1,2,.42Z"/><path class="cls-14" d="M532.2,214.49a.75.75,0,0,1-.28,1.32l-18,7.22a2,2,0,0,1-2-.43l-6.32-6.55a.78.78,0,0,1,.29-1.34l18.3-7.4a2,2,0,0,1,2,.42Z"/><path class="cls-14" d="M560.12,202a.75.75,0,0,1-.29,1.32l-18,7.22a2,2,0,0,1-2-.43l-6.31-6.54a.77.77,0,0,1,.29-1.34l18.3-7.41a2,2,0,0,1,2,.42Z"/><path class="cls-14" d="M588,189.41a.76.76,0,0,1-.29,1.33l-18,7.22a2,2,0,0,1-2-.44L561.47,191a.77.77,0,0,1,.29-1.34l18.3-7.4a2,2,0,0,1,2,.42Z"/><g class="cls-15"><path class="cls-16" d="M527.53,127.25c1.81,1.86,1.32,4.16-1.1,5.12l-69.58,27.94a7.65,7.65,0,0,1-7.69-1.68L390.66,98c-1.8-1.88-1.3-4.21,1.11-5.19l70.84-28.65a7.64,7.64,0,0,1,7.69,1.62Z"/><path class="cls-17" d="M491.51,171.84a.75.75,0,0,1-.28,1.32l-18,7.22a2,2,0,0,1-2-.43L465,173.4a.76.76,0,0,1,.29-1.33l18.3-7.41a2,2,0,0,1,2,.42Z"/><path class="cls-18" d="M519.43,159.3a.76.76,0,0,1-.28,1.33l-18,7.22a2,2,0,0,1-2-.44l-6.31-6.54a.77.77,0,0,1,.29-1.34l18.3-7.4a2,2,0,0,1,2,.42Z"/><path class="cls-19" d="M604.13,205.61a.76.76,0,0,1-.29,1.33l-74.75,33.28a2,2,0,0,1-2-.43l-6.32-6.54a.77.77,0,0,1,.29-1.34l75.09-33.47a2,2,0,0,1,2,.41Z"/><path class="cls-20" d="M547.35,146.77a.75.75,0,0,1-.29,1.32l-18,7.22a2,2,0,0,1-2-.44l-6.32-6.54a.77.77,0,0,1,.29-1.33l18.3-7.41a2,2,0,0,1,2,.42Z"/><path class="cls-21" d="M505.08,186.05a.76.76,0,0,1-.29,1.33l-18,7.22a2,2,0,0,1-2-.43l-6.31-6.55a.77.77,0,0,1,.28-1.34l18.3-7.4a2,2,0,0,1,2,.42Z"/><path class="cls-22" d="M533,173.52a.75.75,0,0,1-.28,1.32l-18,7.22a2,2,0,0,1-2-.43l-6.32-6.55a.77.77,0,0,1,.29-1.33l18.3-7.41a2,2,0,0,1,2,.42Z"/><path class="cls-23" d="M560.91,161a.75.75,0,0,1-.28,1.32l-18,7.22a2,2,0,0,1-2-.43l-6.31-6.54a.77.77,0,0,1,.28-1.34l18.31-7.4a2,2,0,0,1,2,.42Z"/><path class="cls-24" d="M518.64,200.27a.75.75,0,0,1-.28,1.32l-18,7.22a2,2,0,0,1-2-.43l-6.31-6.54a.77.77,0,0,1,.29-1.34l18.3-7.4a2,2,0,0,1,2,.41Z"/><path class="cls-25" d="M546.56,187.73a.76.76,0,0,1-.29,1.33l-18,7.22a2,2,0,0,1-2-.44L520,189.3a.77.77,0,0,1,.29-1.34l18.31-7.4a2,2,0,0,1,2,.42Z"/><path class="cls-26" d="M574.47,175.2a.75.75,0,0,1-.28,1.32l-18,7.22a2,2,0,0,1-2-.43l-6.32-6.55a.77.77,0,0,1,.29-1.33L566.5,168a2,2,0,0,1,2,.42Z"/><path class="cls-27" d="M532.2,214.49a.75.75,0,0,1-.28,1.32l-18,7.22a2,2,0,0,1-2-.43l-6.32-6.55a.78.78,0,0,1,.29-1.34l18.3-7.4a2,2,0,0,1,2,.42Z"/><path class="cls-28" d="M560.12,202a.75.75,0,0,1-.29,1.32l-18,7.22a2,2,0,0,1-2-.43l-6.31-6.54a.77.77,0,0,1,.29-1.34l18.3-7.41a2,2,0,0,1,2,.42Z"/><path class="cls-29" d="M588,189.41a.76.76,0,0,1-.29,1.33l-18,7.22a2,2,0,0,1-2-.44L561.47,191a.77.77,0,0,1,.29-1.34l18.3-7.4a2,2,0,0,1,2,.42Z"/></g><path class="cls-30" d="M331.05,244.5c.08-.09,0-.7,0-.81,0-.72.05-1.44.12-2.15a29.4,29.4,0,0,1,.54-3.73c.2-.86.47-2,1.36-2.4.65-.31,1.29-.36,1.62.38a4.4,4.4,0,0,1,.25,1.13c.05.36,0,1.29.16,1.57,0,0,2.28,3.15,0,5.42a12.16,12.16,0,0,1-4.06,4.83c-2.6,1.58-2.46-1.38-2.31-1.63S331.05,244.5,331.05,244.5Z"/><path class="cls-31" d="M329.37,244.5s3.65,1.38,4.14,4.34c0,0-26.42,28.19-39.43,38.15s-10.06.69-10.06.69S316.26,255.35,329.37,244.5Z"/><path class="cls-30" d="M342.58,252.83c.08-.09,0-.69,0-.81,0-.73.05-1.44.12-2.15a25.85,25.85,0,0,1,.54-3.72c.2-.87.46-2,1.35-2.41.66-.31,1.3-.36,1.62.38a4.4,4.4,0,0,1,.25,1.13c.06.36,0,1.29.17,1.57,0,0,2.28,3.15,0,5.42a12.09,12.09,0,0,1-4.06,4.83c-2.61,1.58-2.46-1.38-2.32-1.63S342.58,252.83,342.58,252.83Z"/><path class="cls-32" d="M340.91,252.49l3.74,3.94c1.75,1.9-17.62,21.66-19.49,23.54a107.76,107.76,0,0,1-12.23,10.65c-3.15,2.34-6.9,4.69-9,8.12a13,13,0,0,0-1.91,6.94c0,2.69,1.2,5.45.52,8.13-.55,2.16-2.72,2.38-4.41,3.05a12.06,12.06,0,0,0-4.76,3.57c-2.7,3.27-3.94,8-4.53,12.11,0,0-1.19,8.28-3.75,14,0,0-2-4.74-24.06-10.06,4.88-8.42,11.35-18.72,12.41-28.55.93-8.62,1.93-23.75,14.41-22.52,0,0,10.25.4,14,.4,1.35,0,4.34-2.87,5.38-3.59,3.06-2.1,6.08-4.26,9-6.49C325.23,269,334.15,261.5,340.91,252.49Z"/><path class="cls-30" d="M298.32,262.94c-6.11-4.15-9.47,0-9.47,0a10,10,0,0,0-4,3.62,13.73,13.73,0,0,0-1.81,4.83,24.27,24.27,0,0,0-.26,5.25,36,36,0,0,0,.67,5q.24,1.25.57,2.46a12.44,12.44,0,0,1,.74,3.22,4.07,4.07,0,0,0,1.68,3.2,4,4,0,0,0,1.12.57,4.45,4.45,0,0,0,1.36.22,4.19,4.19,0,0,0,3.88-2.61,7.39,7.39,0,0,0,.28-1.4c.07-.5.2-1,.24-1.48s0-1,.08-1.48a7.86,7.86,0,0,1,.67-2.6,6.77,6.77,0,0,1,1.69-2.14,2.09,2.09,0,0,1,.39-.27C308.29,273,298.32,262.94,298.32,262.94Z"/><path class="cls-33" d="M277.41,268.9c-4.91,7.69-10.28,14.38-19.89,15.74-4.8.68-10.53,2.44-13.6,6.44-2.77,3.59-2.45,8.85-2,13.13a15.08,15.08,0,0,0,4.44,9.43c6.73,6.38,14.44,3.75,20.51-1.64a31.46,31.46,0,0,0,7.21-8.63c1.68-3.21,2.35-6.78,3.68-10.12s3.87-7.57,7.1-9.16c4.45-2.18,8.59-3.94,11.28-8.47a19.28,19.28,0,0,0,2.17-12.68c-.18-1.2-3.62-2.68-4.48-3-4.77-1.61-9.66,1.14-13,4.46A26.72,26.72,0,0,0,277.41,268.9Z"/><path class="cls-34" d="M186.05,360.26l-7.84-4.09s-10.05,8-13.06,12.07c0,0,6.11.59,13.51-4.93l6.65,2.47Z"/><path class="cls-35" d="M196.89,398.34l-8.82-.59s-6,11.39-7.1,16.3c0,0,5.83-1.91,10.38-9.94l7.09-.41Z"/><path class="cls-36" d="M261.37,336.15s-7.1-.79-11.43,12c-3.5,10.3-14.59,18.05-24.88,20.54-5.53,1.33-12.83-.87-18.26-2.28a121.14,121.14,0,0,1-20.75-7.62v7.3c0,1.11,2.62,3.24,3.28,3.83,9,8.1,22.28,13.89,34.54,12.53a45.18,45.18,0,0,0,22.44-8.83,92.25,92.25,0,0,0,11.51-10.49,8.17,8.17,0,0,0-.74,2.22,42.77,42.77,0,0,1-2.66,5.8c-3.24,5.92-7.56,11.77-12.93,15.92-9.75,7.53-22.16,8.58-34.08,9.31-.87.06-11.12.39-11.11,0l-.22,10.13c5.49.4,11.14.34,16.66.29a90,90,0,0,0,15-1.61c6.47-1.14,13.24-2,18.86-5.67,4.94-3.26,9-7.86,12.73-12.44,4.32-5.35,8.37-11,12.42-16.52a146.11,146.11,0,0,0,8.09-12.38,64.1,64.1,0,0,0,3.46-6.69c.24-.55,2.51-5.6,2.13-5.91C285.43,345.61,274.23,336.73,261.37,336.15Z"/><path class="cls-37" d="M261.37,336.15s-7.1-.79-11.43,12c-3.5,10.3-14.59,18.05-24.88,20.54-5.53,1.33-12.83-.87-18.26-2.28a121.14,121.14,0,0,1-20.75-7.62v7.3c0,1.11,2.62,3.24,3.28,3.83,9,8.1,22.28,13.89,34.54,12.53a45.18,45.18,0,0,0,22.44-8.83,92.25,92.25,0,0,0,11.51-10.49,8.17,8.17,0,0,0-.74,2.22,42.77,42.77,0,0,1-2.66,5.8c-3.24,5.92-7.56,11.77-12.93,15.92-9.75,7.53-22.16,8.58-34.08,9.31-.87.06-11.12.39-11.11,0l-.22,10.13c5.49.4,11.14.34,16.66.29a90,90,0,0,0,15-1.61c6.47-1.14,13.24-2,18.86-5.67,4.94-3.26,9-7.86,12.73-12.44,4.32-5.35,8.37-11,12.42-16.52a146.11,146.11,0,0,0,8.09-12.38,64.1,64.1,0,0,0,3.46-6.69c.24-.55,2.51-5.6,2.13-5.91C285.43,345.61,274.23,336.73,261.37,336.15Z"/><path class="cls-38" d="M491,109.05l-13.4,4.51,1.08,3.67s1.08,3,1.57,2.9,4.05-.69,4.05-.69l-1.08-2.21S489.67,112.5,491,109.05Z"/><path class="cls-38" d="M522.28,142.64l-11.92-5-1.48,3.18s-1.63,2.93-1.27,3.2,3.49,1.75,3.49,1.75l.88-2.21S519.31,144.23,522.28,142.64Z"/><path class="cls-39" d="M464.14,170.07c7.1-.77,14.68-1.74,21.44-4.13,4.65-1.64,8.46-5.6,11.77-9.14,1.11-1.18,10.63-13.15,10.26-13.35l3.55,2c.37.21-2.18,6.85-2.33,7.24a70.14,70.14,0,0,1-7.69,15c-2.17,3.05-5.08,6.61-8.41,8.48-1.74,1-3.61,1.82-5.4,2.73a104.06,104.06,0,0,1-20.6,7.5c-1.6.43-16.74,3-16.79,3.42,0,0,3.59-14.89-11-21.3,0,0-1.52-10.65,12-10.05,9.37.41,19.73-5.71,25.74-12.43,6.37-7.13,4.73-20.51,2-28.78,0,0,3.06.89,4.54,0,3.13,6.23,6.41,13.91,6.66,21,.37,10.5-8,18.88-15.47,25-1.53,1.24-3.1,2.42-4.74,3.52C468.29,167.56,465.72,169.9,464.14,170.07Z"/><path class="cls-30" d="M353.43,228.58s-7.2.49-10.31,3.16a1.46,1.46,0,0,0-.18,1.15c.4,1.05,2.18.45,2.94.29s1.26-.25,1.89-.37c.36-.07.74-.11,1.11-.17-.16,0-.5,1-.54,1.12-.13.39-.28.88.18,1.07,1.24.48,2.55-1.12,3.28-1.89a30.54,30.54,0,0,0,2.61-2.63Z"/><path class="cls-30" d="M362.63,240.36s-7.2.49-10.31,3.15a1.53,1.53,0,0,0-.19,1.16c.41,1,2.19.45,2.95.28l1.88-.37c.37-.07.75-.1,1.12-.16-.16,0-.5,1-.54,1.12-.13.38-.28.88.18,1.06,1.24.49,2.55-1.12,3.28-1.88a30.54,30.54,0,0,0,2.61-2.63Z"/><path class="cls-40" d="M438.94,168.49s-24.55,11.83-34.3,14.49c-1.87.51-4,2.48-5.56,3.51a152.1,152.1,0,0,0-15.26,11.6c-9,7.75-17.19,16.33-25.66,24.66-.82.81-6.13,4.85-6.07,5.88,0,0,.2,3,2,3.75,1,.44,9.31-7.07,10.43-7.94,3.55-2.74,7.11-5.47,10.58-8.29,6-4.86,11.47-10.38,17.55-15.07,2.61-2,7.31-3.59,10.4-2,9.5,4.93-7.37,14-11.09,16.44-3.31,2.21-6.45,4.67-9.67,7,0,0-16.37,11.83-21.3,16.95,0,0-.79,2.76,3,3.55.73.15,3.27-1.9,3.89-2.25q4.71-2.75,9.4-5.53c11.2-6.64,22.35-13.36,33-20.82,8.24-5.76,15.91-12.18,24.65-17.21,2.73-1.57,5.53-3,8.4-4.32.89-.39,8.48-2.61,8.59-3.1C451.86,189.79,455.8,171.45,438.94,168.49Z"/><path class="cls-30" d="M404,190.92a8.52,8.52,0,0,1-2.64-6.1,2.55,2.55,0,0,0-2.33-2.66,7.3,7.3,0,1,0-1.8,9.42c1.91.48,3.94,1.31,4.94,2.74A2.19,2.19,0,0,0,404,190.92Z"/><path class="cls-38" d="M394.44,182.25s-5.4,5.54-11.76,3.54c0,0,.45-12.42,11.76-10.35,0,0,3.79-1,4.24,2.07,0,0,3.67,0,2.26,6.73S394.22,183.43,394.44,182.25Z"/><path class="cls-10" d="M277.89,502.2c1.89,1.93-.94,8.13-3.45,9.12l-88.77,35.25a7.93,7.93,0,0,1-8-1.74L27.5,388.36c-1.87-1.95.92-12.47,3.42-13.48l84.22-35.18a7.94,7.94,0,0,1,8,1.68Z"/><path class="cls-12" d="M274.18,507.06c1.82,1.86,1.32,4.17-1.1,5.12l-87.41,34.39a7.63,7.63,0,0,1-7.68-1.68L28.58,389.25c-1.8-1.88-1.3-4.21,1.11-5.19l85.08-34.31a7.64,7.64,0,0,1,7.69,1.61Z"/><path class="cls-41" d="M114.77,349.75,29.69,384.06c-2.41,1-2.91,3.31-1.11,5.19L140,505.31a244.15,244.15,0,0,0,4.52-47.16c0-42.62-10.61-81.14-27.7-108.82A6.18,6.18,0,0,0,114.77,349.75Z"/><path class="cls-42" d="M274.18,507.06c1.82,1.86,1.32,4.17-1.1,5.12l-87.41,34.39a7.63,7.63,0,0,1-7.68-1.68L28.58,389.25c-1.8-1.88-1.3-4.21,1.11-5.19l85.08-34.31a7.64,7.64,0,0,1,7.69,1.61Z"/><path class="cls-43" d="M114.77,349.75,29.69,384.06c-2.41,1-2.91,3.31-1.11,5.19L140,505.31a244.15,244.15,0,0,0,4.52-47.16c0-42.62-10.61-81.14-27.7-108.82A6.18,6.18,0,0,0,114.77,349.75Z"/><path class="cls-44" d="M322.42,195.67H282.84a4.33,4.33,0,0,0-4.33,4.34v22.82a4.33,4.33,0,0,0,4.33,4.34h4.5l5.6,7.49a3,3,0,0,0,4.8,0l5.6-7.49h19.08a4.33,4.33,0,0,0,4.33-4.34V200A4.33,4.33,0,0,0,322.42,195.67Z"/><path class="cls-45" d="M314.28,202.79H274.71a4.34,4.34,0,0,0-4.34,4.34V230a4.34,4.34,0,0,0,4.34,4.34h4.49l5.61,7.49a3,3,0,0,0,4.79,0l5.61-7.49h19.07a4.34,4.34,0,0,0,4.34-4.34V207.13A4.34,4.34,0,0,0,314.28,202.79Z"/><path class="cls-46" d="M308.56,210.77H276.93a1.53,1.53,0,1,1,0-3.05h31.63a1.53,1.53,0,1,1,0,3.05Z"/><path class="cls-46" d="M308.56,218H276.93a1.53,1.53,0,1,1,0-3.05h31.63a1.53,1.53,0,1,1,0,3.05Z"/><path class="cls-46" d="M294,225.17h-17.1a1.53,1.53,0,0,1,0-3.06H294a1.53,1.53,0,0,1,0,3.06Z"/><path class="cls-47" d="M367,140.75h24.54a2.69,2.69,0,0,1,2.69,2.68v14.16a2.7,2.7,0,0,1-2.69,2.69h-2.79l-3.47,4.64a1.86,1.86,0,0,1-3,0l-3.47-4.64H367a2.7,2.7,0,0,1-2.69-2.69V143.43A2.69,2.69,0,0,1,367,140.75Z"/><path class="cls-48" d="M362.92,145.16h24.54a2.68,2.68,0,0,1,2.69,2.69V162a2.68,2.68,0,0,1-2.69,2.69h-2.79l-3.47,4.65a1.87,1.87,0,0,1-3,0l-3.47-4.65H362.92a2.69,2.69,0,0,1-2.69-2.69V147.85A2.69,2.69,0,0,1,362.92,145.16Z"/><path class="cls-49" d="M369.77,154.9a2.19,2.19,0,1,1-2.19-2.18A2.19,2.19,0,0,1,369.77,154.9Z"/><circle class="cls-49" cx="375.19" cy="154.9" r="2.19"/><path class="cls-49" d="M385,154.9a2.19,2.19,0,1,1-2.19-2.18A2.19,2.19,0,0,1,385,154.9Z"/><path class="cls-47" d="M263.69,422.1H239.15a2.69,2.69,0,0,0-2.69,2.69v14.15a2.69,2.69,0,0,0,2.69,2.69h2.79l3.48,4.65a1.86,1.86,0,0,0,3,0l3.47-4.65h11.83a2.68,2.68,0,0,0,2.69-2.69V424.79A2.68,2.68,0,0,0,263.69,422.1Z"/><path class="cls-48" d="M267.8,426.51H243.26a2.7,2.7,0,0,0-2.69,2.69v14.15a2.7,2.7,0,0,0,2.69,2.7h2.79l3.47,4.64a1.87,1.87,0,0,0,3,0l3.47-4.64H267.8a2.69,2.69,0,0,0,2.69-2.7V429.2A2.69,2.69,0,0,0,267.8,426.51Z"/><path class="cls-49" d="M261,436.26a2.19,2.19,0,1,0,2.19-2.19A2.19,2.19,0,0,0,261,436.26Z"/><path class="cls-49" d="M253.34,436.26a2.19,2.19,0,1,0,2.19-2.19A2.19,2.19,0,0,0,253.34,436.26Z"/><path class="cls-49" d="M245.73,436.26a2.19,2.19,0,1,0,2.19-2.19A2.19,2.19,0,0,0,245.73,436.26Z"/><g class="cls-50"><path class="cls-51" d="M677.11,96.26c0,10.31-18.65,32-18.65,32s-18.66-21.67-18.66-32a18.66,18.66,0,0,1,37.31,0Z"/><path class="cls-52" d="M677.11,96.26c0,10.31-18.65,32-18.65,32s-18.66-21.67-18.66-32a18.66,18.66,0,0,1,37.31,0Z"/><path class="cls-53" d="M666.37,96.5a7.91,7.91,0,1,1-7.91-7.92A7.91,7.91,0,0,1,666.37,96.5Z"/></g><rect class="cls-54" x="140.35" y="284.03" width="91.4" height="5.48"/><rect class="cls-54" x="140.35" y="300.6" width="91.4" height="5.48"/><rect class="cls-54" x="140.35" y="316.39" width="34.73" height="5.48"/><g class="cls-55"><path class="cls-51" d="M155.18,112.55c0,15.78-28.56,49-28.56,49s-28.56-33.18-28.56-49a28.56,28.56,0,0,1,57.12,0Z"/><path class="cls-56" d="M155.18,112.55c0,15.78-28.56,49-28.56,49s-28.56-33.18-28.56-49a28.56,28.56,0,0,1,57.12,0Z"/><path class="cls-57" d="M138.74,112.91a12.12,12.12,0,1,1-12.12-12.11A12.12,12.12,0,0,1,138.74,112.91Z"/></g></g></g></svg>